<svg xmlns="http://www.w3.org/2000/svg" width="20" height="20" viewBox="0 0 20 20">

    <path
        d="M4.76077 20C3.78245 20.0001 2.80444 19.6277 2.05967 18.883C0.570298 17.3936 0.570259 14.9702 2.05967 13.4807L12.1483 3.39207C13.1185 2.42184 14.6972 2.42184 15.6673 3.39207C16.6375 4.3623 16.6375 5.94094 15.6673 6.91109L7.32737 15.2511C7.09854 15.4799 6.72749 15.4799 6.49866 15.2511C6.26983 15.0222 6.26983 14.6512 6.49866 14.4223L14.8386 6.08238C15.0873 5.83375 15.2242 5.5032 15.2242 5.1516C15.2242 4.8 15.0873 4.46945 14.8386 4.22082C14.59 3.97219 14.2594 3.83523 13.9078 3.83523C13.5562 3.83523 13.2257 3.97215 12.9771 4.22078L2.88838 14.3095C1.85596 15.3419 1.85596 17.0218 2.88838 18.0543C3.92081 19.0866 5.60073 19.0867 6.63319 18.0543L16.7218 7.96562C18.2734 6.41398 18.2734 3.88926 16.7218 2.33762C15.9701 1.58598 14.9708 1.17199 13.9078 1.17199C12.8448 1.17199 11.8454 1.58598 11.0938 2.33762L2.75385 10.6775C2.52502 10.9064 2.15397 10.9064 1.92514 10.6775C1.69631 10.4487 1.69631 10.0777 1.92514 9.84883L10.2651 1.50887C11.2381 0.535859 12.5318 0 13.9078 0C15.2838 0 16.5775 0.535859 17.5505 1.50887C19.5591 3.51746 19.5591 6.78566 17.5505 8.7943L7.4619 18.883C6.71725 19.6276 5.73885 19.9999 4.76077 20Z" />

</svg>