<svg xmlns="http://www.w3.org/2000/svg" width="16" height="16" viewBox="0 0 16 16">
    <path
        d="M14.5938 2H1.40625C0.631813 2 0 2.62142 0 3.38462V12.6154C0 13.376 0.629 14 1.40625 14H14.5938C15.3662 14 16 13.3807 16 12.6154V3.38462C16 2.624 15.371 2 14.5938 2ZM14.3996 2.92308L8.02981 9.19486L1.60497 2.92308H14.3996ZM0.9375 12.4242V3.57135L5.45247 7.97874L0.9375 12.4242ZM1.60041 13.0769L6.11822 8.62862L7.70125 10.1739C7.8845 10.3528 8.18022 10.3522 8.36272 10.1725L9.90625 8.65271L14.3996 13.0769H1.60041ZM15.0625 12.4242L10.5692 8L15.0625 3.57575V12.4242Z" />
</svg>