<svg xmlns="http://www.w3.org/2000/svg" width="16" height="16" viewBox="0 0 16 16">
    <path
        d="M11.972 16C11.3181 16.0004 10.6755 15.8301 10.1078 15.5061L10.0225 15.457C6.29046 13.3254 3.16813 10.2744 0.953572 6.59543L0.530487 5.89215C0.103276 5.1822 -0.0736245 4.34995 0.0279693 3.528C0.129563 2.70604 0.503806 1.94167 1.09108 1.35666L1.93369 0.515558C2.26478 0.185432 2.71361 0 3.18158 0C3.64955 0 4.09838 0.185432 4.42947 0.515558L6.28711 2.36986C6.5588 2.64217 6.73408 2.99551 6.78637 3.37627C6.83866 3.75703 6.7651 4.14443 6.57685 4.47968L5.87886 5.71707C5.85883 5.75303 5.85107 5.79452 5.85673 5.83527C5.86239 5.87603 5.88117 5.91384 5.91024 5.94301L10.0456 10.071C10.0749 10.1001 10.1129 10.1189 10.1538 10.1246C10.1948 10.1302 10.2365 10.1224 10.2726 10.1023L11.511 9.40554H11.5116C11.8475 9.21765 12.2356 9.14425 12.617 9.19645C12.9984 9.24865 13.3524 9.42361 13.6252 9.69479L15.484 11.5497C15.8144 11.8803 16 12.3283 16 12.7953C16 13.2624 15.8144 13.7103 15.484 14.041L14.6035 14.9199C13.9042 15.6135 12.9578 16.002 11.972 16H11.972ZM3.18153 1.18275C3.1054 1.18264 3.02999 1.19753 2.95963 1.22656C2.88927 1.25559 2.82534 1.2982 2.7715 1.35193L1.92889 2.19297C1.52887 2.59169 1.27399 3.11255 1.20484 3.6726C1.13569 4.23266 1.25623 4.7997 1.54729 5.28346L1.97037 5.98673C4.08066 9.49273 7.05614 12.4002 10.6127 14.4314L10.698 14.4805C11.6964 15.0501 12.958 14.8874 13.765 14.083L14.6455 13.2041C14.7542 13.0955 14.8153 12.9482 14.8153 12.7947C14.8153 12.6412 14.7542 12.494 14.6455 12.3854L12.7867 10.5305C12.6972 10.4413 12.5809 10.3838 12.4555 10.3666C12.3302 10.3494 12.2026 10.3735 12.0923 10.4353L10.8532 11.1321C10.5916 11.2782 10.2894 11.3352 9.9924 11.2945C9.69539 11.2539 9.41974 11.1177 9.20715 10.9067L5.07175 6.77878C4.86025 6.56677 4.72378 6.2917 4.68304 5.99527C4.6423 5.69885 4.69952 5.39725 4.84602 5.13621L5.54404 3.89885C5.60566 3.78862 5.62967 3.66137 5.61246 3.53632C5.59524 3.41126 5.53774 3.29519 5.44862 3.20563L3.59159 1.3519C3.53775 1.29816 3.47382 1.25556 3.40345 1.22653C3.33308 1.1975 3.25767 1.18263 3.18153 1.18275Z" />
</svg>