<svg xmlns="http://www.w3.org/2000/svg" width="24" height="24" viewBox="0 0 24 24">

    <path
        d="M16.7098 14.3198C17.6889 12.8654 18.261 11.1153 18.261 9.23402C18.261 4.19945 14.165 0.103516 9.13045 0.103516C4.09589 0.103516 0 4.19945 0 9.23397C0 14.2685 4.09594 18.3645 9.1305 18.3645C11.0489 18.3645 12.8306 17.7692 14.3017 16.7545L21.5787 23.9999L24 21.5786L16.7098 14.3198ZM9.1305 15.8C5.51798 15.8 2.57887 12.8609 2.57887 9.24836C2.57887 5.63584 5.51794 2.69678 9.1305 2.69678C12.7431 2.69678 15.6821 5.63584 15.6821 9.24841C15.6821 12.861 12.743 15.8 9.1305 15.8Z" />

</svg>