<svg xmlns="http://www.w3.org/2000/svg" width="24" height="24" viewBox="0 0 24 24">
    <path
        d="M23.0717 2.36524C22.8893 2.19834 22.6658 2.08301 22.4241 2.03107C22.1824 1.97914 21.9312 1.99249 21.6964 2.06974L1.4327 8.7495C0.880455 8.93153 0.505958 9.42449 0.478636 10.0053C0.451359 10.5861 0.777918 11.1121 1.31058 11.3452L6.32195 13.5378L7.83393 20.5504C7.89672 20.8417 8.04458 21.1012 8.35782 21.181C8.67465 21.2617 8.8985 21.0885 9.1349 20.9115L12.8538 18.1269L17.2014 21.6846C17.4546 21.8919 17.7641 22 18.0797 22C18.2326 21.9999 18.3844 21.9747 18.5292 21.9254C18.9868 21.7703 19.326 21.3968 19.4366 20.9265L23.4861 3.70947C23.5425 3.46879 23.5339 3.21743 23.4611 2.98119C23.3883 2.74495 23.2539 2.53236 23.0717 2.36524ZM9.45885 14.7942C9.45637 14.8 9.45394 14.8067 9.45164 14.8146L8.61335 17.7434L7.67783 13.4045L14.1107 9.83036L9.61315 14.5331C9.54261 14.6073 9.48986 14.6966 9.45885 14.7942ZM9.72491 18.7788L10.1057 17.4485L10.4699 16.1761L11.7748 17.2439L9.72491 18.7788ZM22.1685 3.39952L18.119 20.6165C18.117 20.6251 18.1143 20.6369 18.0945 20.6436C18.0749 20.6502 18.0653 20.6426 18.0586 20.6371L13.3013 16.7441L13.3009 16.7438L11.0967 14.9401L18.1781 7.53576C18.29 7.41874 18.3562 7.26546 18.3648 7.10376C18.3733 6.94206 18.3236 6.78266 18.2247 6.65448C18.1257 6.52629 17.9841 6.43784 17.8255 6.40517C17.6669 6.37251 17.5018 6.3978 17.3603 6.47646L6.87478 12.3023L1.85315 10.1051C1.83785 10.0985 1.82943 10.0947 1.83065 10.0688C1.83186 10.043 1.8406 10.0401 1.85644 10.0349L22.1201 3.35518C22.1299 3.35199 22.141 3.34829 22.1573 3.36315C22.1736 3.37809 22.1709 3.38944 22.1685 3.39952Z" />
</svg>