<svg xmlns="http://www.w3.org/2000/svg" width="24" height="24" viewBox="0 0 24 24">
    <path
        d="M19.8752 4.12482C17.8601 2.10963 15.1814 1 12.3313 1H12.3303C10.9208 1.00017 9.54708 1.27307 8.24779 1.81138C6.94833 2.34965 5.78414 3.12794 4.78731 4.12482C2.77229 6.13979 1.66262 8.81898 1.66262 11.6687C1.66262 13.3681 2.07271 15.057 2.84967 16.5617L1.05642 21.6848C0.930002 22.0461 1.01946 22.4389 1.29038 22.7096C1.47987 22.8993 1.72931 23 1.9857 23C2.09566 23 2.20678 22.9815 2.31519 22.9436L7.43822 21.1505C8.94299 21.9275 10.6318 22.3375 12.3313 22.3375C15.181 22.3375 17.86 21.2277 19.8751 19.2127C21.8902 17.1977 23 14.5185 23 11.6688C23 8.81898 21.8904 6.13979 19.8752 4.12482ZM18.9628 18.3003C17.1915 20.0718 14.8363 21.0471 12.3313 21.0471C10.7989 21.0471 9.27651 20.6681 7.92871 19.9507C7.68435 19.8208 7.39547 19.7985 7.13615 19.8893L2.48178 21.5182L4.11085 16.8638C4.20169 16.6042 4.17917 16.3154 4.04927 16.0711C3.33204 14.7236 2.95288 13.2013 2.95288 11.6687C2.95288 9.16372 3.9284 6.80847 5.6997 5.03721C7.47083 3.26609 9.82569 2.29057 12.3305 2.29022H12.3313C14.8364 2.29022 17.1915 3.26574 18.9628 5.03721C20.7343 6.80852 21.7098 9.16355 21.7098 11.6687C21.7098 14.1737 20.7343 16.529 18.9628 18.3003Z" />
    <path
        d="M16.2969 12.6217C15.8061 12.1309 15.0075 12.1309 14.5167 12.6217L13.98 13.1584C12.6471 12.4322 11.5685 11.3536 10.842 10.0207L11.3788 9.4839C11.8698 8.99312 11.8698 8.19454 11.3788 7.70371L9.9323 6.25725C9.44152 5.76646 8.6429 5.76646 8.15211 6.25725L6.99496 7.4144C6.33217 8.07719 6.29912 9.21672 6.90185 10.6231C7.42521 11.8442 8.38294 13.1863 9.59865 14.402C10.8144 15.6177 12.1565 16.5754 13.3775 17.0988C14.0457 17.3851 14.6535 17.528 15.1787 17.528C15.759 17.528 16.2383 17.3536 16.5863 17.0056L17.7434 15.8483V15.8485C17.9813 15.6106 18.1121 15.2946 18.1121 14.9584C18.1121 14.622 17.9813 14.306 17.7434 14.0683L16.2969 12.6217ZM15.6738 16.0932C15.4847 16.2824 14.9029 16.3487 13.8859 15.9129C12.8121 15.4527 11.6135 14.592 10.511 13.4896C9.40864 12.3872 8.54807 11.1887 8.08787 10.1148C7.65195 9.09787 7.71825 8.51595 7.9074 8.3268L9.04238 7.19182L10.4442 8.59381L9.77237 9.26588C9.46859 9.56967 9.39519 10.0304 9.59006 10.4125C10.4735 12.1446 11.856 13.5272 13.5882 14.4106C13.9704 14.6054 14.4311 14.5323 14.7349 14.2283L15.4068 13.5564L16.8088 14.9584L15.6738 16.0932Z" />
</svg>