<svg width="622" height="609" viewBox="0 0 622 609" fill="none" xmlns="http://www.w3.org/2000/svg">
    <path d="M232.591 326.042L130.438 278.577" stroke="#232626" stroke-width="0.8671" stroke-miterlimit="10" />
    <path d="M130.437 278.577L60.7637 351.327" stroke="#232626" stroke-width="0.8671" stroke-miterlimit="10" />
    <path
        d="M130.172 238.944C130.172 241.613 130.442 244.42 130.172 247.073C129.53 253.382 124.787 254.036 120.884 257.495C115.568 262.208 114.496 270.911 118.734 276.677C121.915 281.002 127.714 283.431 133.023 282.389C139.733 281.073 142.472 275.073 142.684 268.774C142.753 266.755 139.615 266.758 139.547 268.774C138.924 287.219 113.152 278.172 120.459 263.174C123.195 257.561 130.417 257.144 132.638 251.034C133.963 247.388 133.308 242.747 133.308 238.946C133.309 236.925 130.172 236.923 130.172 238.944Z"
        fill="#232626" />
    <path d="M470.027 80.338L439.553 118.841L441.739 120.571L472.214 82.0686L470.027 80.338Z" fill="#6D6D6D" />
    <path d="M439.171 80.3368L408.697 118.84L410.884 120.57L441.358 82.0674L439.171 80.3368Z" fill="#6D6D6D" />
    <path d="M407.398 80.3353L376.924 118.838L379.11 120.569L409.585 82.0659L407.398 80.3353Z" fill="#6D6D6D" />
    <path d="M375.401 80.3323L344.926 118.836L347.112 120.567L377.587 82.0629L375.401 80.3323Z" fill="#6D6D6D" />
    <path d="M344.772 80.3325L314.297 118.836L316.483 120.567L346.959 82.0631L344.772 80.3325Z" fill="#6D6D6D" />
    <path d="M313.457 80.3324L282.982 118.835L285.169 120.566L315.643 82.063L313.457 80.3324Z" fill="#6D6D6D" />
    <path d="M282.144 80.3329L251.67 118.836L253.856 120.566L284.331 82.0635L282.144 80.3329Z" fill="#6D6D6D" />
    <path d="M249.933 80.3084L219.459 118.816L221.646 120.547L252.12 82.039L249.933 80.3084Z" fill="#6D6D6D" />
    <path d="M219.058 80.3287L188.584 118.832L190.771 120.562L221.245 82.0593L219.058 80.3287Z" fill="#6D6D6D" />
    <path d="M188.216 80.3106L157.742 118.818L159.929 120.549L190.403 82.0412L188.216 80.3106Z" fill="#6D6D6D" />
    <path d="M441.765 80.2953L439.578 82.0259L470.052 120.534L472.239 118.803L441.765 80.2953Z" fill="#545454" />
    <path d="M410.908 80.297L408.721 82.0276L439.195 120.535L441.382 118.805L410.908 80.297Z" fill="#545454" />
    <path d="M379.136 80.2984L376.949 82.0291L407.423 120.537L409.61 118.806L379.136 80.2984Z" fill="#545454" />
    <path d="M347.134 80.3094L344.947 82.04L375.422 120.549L377.609 118.818L347.134 80.3094Z" fill="#545454" />
    <path d="M316.509 80.3109L314.322 82.0415L344.797 120.55L346.984 118.82L316.509 80.3109Z" fill="#545454" />
    <path d="M285.191 80.3033L283.004 82.0339L313.478 120.542L315.665 118.811L285.191 80.3033Z" fill="#545454" />
    <path d="M253.876 80.3092L251.689 82.0398L282.164 120.548L284.351 118.817L253.876 80.3092Z" fill="#545454" />
    <path d="M221.648 80.3107L219.461 82.0413L249.935 120.549L252.122 118.818L221.648 80.3107Z" fill="#545454" />
    <path d="M190.777 80.3334L188.59 82.0637L219.059 120.571L221.246 118.841L190.777 80.3334Z" fill="#545454" />
    <path d="M159.929 80.3126L157.742 82.0432L188.216 120.551L190.403 118.82L159.929 80.3126Z" fill="#545454" />
    <path
        d="M474.445 121.082H103.303L157.838 79.7871H474.445V121.082ZM111.604 118.294H471.656V82.5771H158.775L111.604 118.294Z"
        fill="#65737E" />
    <path d="M513.699 80.2926L511.512 82.0232L541.986 120.531L544.173 118.8L513.699 80.2926Z" fill="#6D6D6D" />
    <path d="M544.56 80.2914L542.373 82.022L572.847 120.53L575.034 118.799L544.56 80.2914Z" fill="#6D6D6D" />
    <path d="M576.331 80.2897L574.145 82.0203L604.619 120.528L606.806 118.797L576.331 80.2897Z" fill="#6D6D6D" />
    <path d="M541.986 80.2943L511.512 118.802L513.699 120.533L544.173 82.0249L541.986 80.2943Z" fill="#545454" />
    <path d="M572.847 80.2945L542.373 118.802L544.56 120.533L575.034 82.0251L572.847 80.2945Z" fill="#545454" />
    <path d="M604.613 80.2906L574.139 118.798L576.325 120.529L606.8 82.0212L604.613 80.2906Z" fill="#545454" />
    <path d="M511.893 95.7985L472.365 117.398L473.702 119.845L513.23 98.2455L511.893 95.7985Z" fill="#6D6D6D" />
    <path d="M511.912 73.8819L472.385 95.4858L473.722 97.9328L513.25 76.3289L511.912 73.8819Z" fill="#6D6D6D" />
    <path d="M511.895 51.4033L472.367 73.0027L473.704 75.4497L513.232 53.8503L511.895 51.4033Z" fill="#6D6D6D" />
    <path d="M511.895 28.719L472.367 50.3184L473.704 52.7654L513.232 31.1659L511.895 28.719Z" fill="#6D6D6D" />
    <path d="M473.691 95.782L472.354 98.229L511.881 119.828L513.218 117.381L473.691 95.782Z" fill="#545454" />
    <path d="M473.691 73.9092L472.354 76.3562L511.881 97.9556L513.218 95.5086L473.691 73.9092Z" fill="#545454" />
    <path d="M473.746 51.3955L472.408 53.8425L511.936 75.4464L513.273 72.9994L473.746 51.3955Z" fill="#545454" />
    <path d="M473.746 28.71L472.408 31.157L511.936 52.7609L513.273 50.3139L473.746 28.71Z" fill="#545454" />
    <path d="M512.579 119.688L618.621 119.688V81.1818L512.579 81.1818V119.688Z" stroke="#5C5A5B" stroke-width="2.31227"
        stroke-miterlimit="10" />
    <path
        d="M513.973 121.082H471.656V27.282L492.366 0.978516L513.973 27.2653V121.082ZM474.446 118.294H511.186V28.2636L492.412 5.42634L474.445 28.2469V118.294H474.446Z"
        fill="#65737E" />
    <path d="M493.531 2.00297L492.053 4.3689L616.813 82.3438L618.291 79.9779L493.531 2.00297Z" fill="#65737E" />
    <path d="M493.621 2.09636L491.992 4.35986L600.375 82.3386L602.003 80.0751L493.621 2.09636Z" fill="#65737E" />
    <path d="M492.41 1.8379L220.146 79.8379L220.914 82.5186L493.178 4.51858L492.41 1.8379Z" fill="#65737E" />
    <path d="M492.392 1.85849L250.596 79.8828L251.452 82.5367L493.249 4.51241L492.392 1.85849Z" fill="#65737E" />
    <path d="M130.334 136.796V234.829" stroke="#383738" stroke-width="2.31227" stroke-miterlimit="10" />
    <path d="M548.404 126.265L622.004 126.265V75.6049H548.404V126.265Z" fill="#4F5B66" />
    <path d="M474.9 238.059L473.17 240.245L511.678 270.719L513.407 268.533L474.9 238.059Z" fill="#6D6D6D" />
    <path d="M474.901 268.91L473.17 271.097L511.678 301.571L513.408 299.384L474.901 268.91Z" fill="#6D6D6D" />
    <path d="M474.904 300.69L473.174 302.875L511.682 333.35L513.411 331.164L474.904 300.69Z" fill="#6D6D6D" />
    <path d="M474.865 332.731L473.135 334.916L511.638 365.391L513.367 363.205L474.865 332.731Z" fill="#6D6D6D" />
    <path d="M474.904 363.32L473.174 365.506L511.682 395.98L513.411 393.794L474.904 363.32Z" fill="#6D6D6D" />
    <path d="M474.907 394.636L473.178 396.822L511.685 427.296L513.415 425.111L474.907 394.636Z" fill="#6D6D6D" />
    <path d="M474.907 425.951L473.178 428.137L511.685 458.611L513.415 456.425L474.907 425.951Z" fill="#6D6D6D" />
    <path d="M474.912 458.179L473.182 460.366L511.689 490.84L513.42 488.653L474.912 458.179Z" fill="#6D6D6D" />
    <path d="M474.911 489.039L473.182 491.225L511.689 521.699L513.419 519.513L474.911 489.039Z" fill="#6D6D6D" />
    <path d="M474.857 519.933L473.127 522.118L511.63 552.592L513.36 550.407L474.857 519.933Z" fill="#6D6D6D" />
    <path d="M511.672 238.093L473.154 268.552L474.883 270.739L513.401 240.279L511.672 238.093Z" fill="#545454" />
    <path d="M511.668 268.932L473.15 299.391L474.88 301.579L513.398 271.119L511.668 268.932Z" fill="#545454" />
    <path d="M511.668 300.723L473.15 331.183L474.879 333.369L513.397 302.91L511.668 300.723Z" fill="#545454" />
    <path d="M511.668 332.705L473.15 363.164L474.879 365.35L513.397 334.891L511.668 332.705Z" fill="#545454" />
    <path d="M511.668 363.354L473.15 393.814L474.879 396L513.397 365.54L511.668 363.354Z" fill="#545454" />
    <path d="M511.668 394.67L473.15 425.129L474.879 427.316L513.397 396.856L511.668 394.67Z" fill="#545454" />
    <path d="M511.668 425.985L473.15 456.444L474.879 458.631L513.397 428.171L511.668 425.985Z" fill="#545454" />
    <path d="M511.672 458.191L473.154 488.65L474.884 490.838L513.402 460.378L511.672 458.191Z" fill="#545454" />
    <path d="M511.668 489.073L473.15 519.532L474.879 521.719L513.397 491.259L511.668 489.073Z" fill="#545454" />
    <path d="M511.672 519.906L473.154 550.365L474.883 552.552L513.401 522.092L511.672 519.906Z" fill="#545454" />
    <path d="M513.903 553.37H472.609V235.836H513.903V553.37ZM475.398 550.581H511.114V238.624H475.398V550.581Z"
        fill="#65737E" />
    <path d="M468.563 243.377H517.943V204.835H468.563V243.377Z" fill="#65737E" />
    <path d="M463.055 209.37H523.459V120.4L463.055 120.4V209.37Z" fill="#343D46" />
    <path d="M466.785 558.887H519.723V552.512H466.785V558.887Z" fill="#545454" />
    <path d="M461.463 608.329H525.049V558.887H461.463V608.329Z" fill="#343D46" />
    <path d="M119.601 137.556H140.891V121.083H119.601V137.556Z" fill="#343D46" />
    <path d="M119.601 243.523H140.891V227.05H119.601V243.523Z" fill="#343D46" />
    <path
        d="M167.769 401.969L178.348 389.276L157.191 378.697L174.116 346.961L159.723 327.77L0 347.519L13.6293 457.744L175.262 437.758L184.695 418.895L167.769 401.969Z"
        fill="#1B4677" />
    <path
        d="M302.398 321.958L200.654 315.922L207.433 333.516L190.418 356.81L203.318 368.393L193.873 377.168L202.784 393.289L193.105 407.225L293.486 413.18L302.398 321.958Z"
        fill="#1B4677" />
    <path
        d="M31.3964 404.79L30.696 399.125L50.7996 356.491L54.9096 355.983L55.9945 364.758L53.2175 365.101L38.0284 397.316L38.0834 397.761L71.7404 393.599L72.4958 399.709L31.3964 404.79ZM59.6086 413.144L57.9537 399.759L57.6275 397.12L52.5769 356.271L59.1306 355.461L66.1623 412.333L59.6086 413.144ZM102.991 408.569C98.807 409.087 95.1025 408.389 91.8773 406.476C88.6499 404.544 85.9896 401.499 83.8966 397.34C81.8013 393.164 80.3714 387.983 79.6069 381.8C78.8469 375.654 78.9756 370.309 79.9928 365.766C81.0262 361.202 82.8728 357.591 85.5326 354.931C88.2086 352.251 91.6201 350.654 95.767 350.142C99.914 349.629 103.602 350.348 106.832 352.298C110.078 354.227 112.749 357.28 114.844 361.457C116.956 365.613 118.391 370.764 119.151 376.911C119.916 383.094 119.791 388.467 118.776 393.028C117.758 397.571 115.92 401.172 113.26 403.832C110.598 406.473 107.175 408.052 102.991 408.569ZM102.236 402.46C106.383 401.947 109.357 399.55 111.158 395.267C112.959 390.984 113.402 385.14 112.486 377.735C111.878 372.81 110.831 368.682 109.348 365.351C107.883 362.017 106.058 359.564 103.871 357.993C101.703 356.419 99.2486 355.801 96.5087 356.14C92.3987 356.648 89.4373 359.072 87.6244 363.413C85.8093 367.735 85.3584 373.589 86.2717 380.976C86.8805 385.901 87.9162 390.02 89.3787 393.336C90.8412 396.651 92.6554 399.086 94.8213 400.642C97.0057 402.195 99.4772 402.801 102.236 402.46ZM130.445 392.544L129.744 386.879L149.848 344.244L153.958 343.736L155.043 352.512L152.266 352.855L137.077 385.07L137.132 385.514L170.789 381.353L171.544 387.462L130.445 392.544ZM158.657 400.897L157.002 387.512L156.676 384.874L151.625 344.025L158.179 343.214L165.21 400.087L158.657 400.897Z"
        fill="white" />
</svg>