<svg width="104" height="105" viewBox="0 0 104 105" fill="none" xmlns="http://www.w3.org/2000/svg">
    <mask id="path-1-inside-1_278_1336" fill="white">
        <path fill-rule="evenodd" clip-rule="evenodd"
            d="M1.97606 11.2875H59.8244V22.0109C59.8244 24.391 61.8561 26.3254 64.3565 26.3254H75.6205V34.3488C66.7629 36.4457 59.7227 42.9172 57.1759 51.2145H15.4317C15.0125 51.2145 14.6104 51.3731 14.314 51.6553C14.0175 51.9375 13.851 52.3203 13.851 52.7194C13.851 53.1186 14.0175 53.5013 14.314 53.7836C14.6104 54.0658 15.0125 54.2243 15.4317 54.2243H56.4659C56.2528 55.5018 56.1459 56.7933 56.1461 58.0867C56.1461 60.0438 56.3891 61.947 56.8451 63.7713H15.4317C15.0125 63.7713 14.6104 63.9298 14.314 64.212C14.0175 64.4943 13.851 64.877 13.851 65.2762C13.851 65.6753 14.0175 66.0581 14.314 66.3403C14.6104 66.6225 15.0125 66.7811 15.4317 66.7811H57.8185C60.7813 74.1956 67.4223 79.884 75.6203 81.8247V102.713C75.6203 103.749 74.7327 104.594 73.6442 104.594H1.97606C0.887579 104.594 0 103.749 0 102.713V13.1687C0.000221507 12.1327 0.8878 11.2875 1.97606 11.2875ZM13.8327 0C12.7442 0 11.8566 0.844975 11.8566 1.88121V7.9135H62.5498C64.0337 7.9135 65.4037 8.45376 66.453 9.45267L77.5476 20.0145C78.5969 21.0135 79.1644 22.3177 79.1644 23.7304V33.7568C80.044 33.6697 80.9369 33.625 81.8409 33.625C83.7773 33.625 85.663 33.8304 87.4769 34.217V15.0379H76.2128C73.7125 15.0379 71.6808 13.1038 71.6808 10.7234V0H13.8327ZM87.4771 81.9563V91.4252C87.4771 92.4612 86.5896 93.3064 85.5011 93.3064H79.1646V82.4166C80.0443 82.5037 80.9371 82.5484 81.8411 82.5484C83.7369 82.5488 85.627 82.3502 87.4771 81.9563ZM75.2251 0.163217V10.7234C75.2257 10.9727 75.3299 11.2116 75.5151 11.3879C75.7002 11.5642 75.9512 11.6634 76.2131 11.6639H87.3057C87.2057 11.4585 87.0677 11.2719 86.8983 11.1129L75.8039 0.551016C75.6369 0.389804 75.4409 0.258453 75.2251 0.163217ZM15.4317 41.6676H60.1886C60.3977 41.6699 60.6053 41.6328 60.7993 41.5582C60.9932 41.4836 61.1697 41.3731 61.3185 41.2332C61.4673 41.0932 61.5854 40.9265 61.666 40.7427C61.7467 40.559 61.7882 40.3618 61.7882 40.1627C61.7882 39.9635 61.7467 39.7664 61.666 39.5826C61.5854 39.3989 61.4673 39.2322 61.3185 39.0922C61.1697 38.9522 60.9932 38.8417 60.7993 38.7672C60.6053 38.6926 60.3977 38.6554 60.1886 38.6578H15.4317C15.0157 38.6625 14.6184 38.8231 14.326 39.1048C14.0336 39.3865 13.8696 39.7666 13.8696 40.1627C13.8696 40.5587 14.0336 40.9389 14.326 41.2206C14.6184 41.5023 15.0157 41.6629 15.4317 41.6676ZM15.4317 29.1106H47.5605C47.9797 29.1106 48.3818 28.9521 48.6782 28.6699C48.9747 28.3876 49.1412 28.0048 49.1412 27.6057C49.1412 27.2066 48.9747 26.8238 48.6782 26.5416C48.3818 26.2594 47.9797 26.1008 47.5605 26.1008H15.4317C15.0125 26.1008 14.6104 26.2594 14.314 26.5416C14.0175 26.8238 13.851 27.2066 13.851 27.6057C13.851 28.0048 14.0175 28.3876 14.314 28.6699C14.6104 28.9521 15.0125 29.1106 15.4317 29.1106ZM15.4317 91.8948H60.1886C60.6079 91.8948 61.01 91.7362 61.3064 91.454C61.6029 91.1717 61.7695 90.7889 61.7695 90.3898C61.7695 89.9906 61.6029 89.6078 61.3064 89.3256C61.01 89.0433 60.6079 88.8848 60.1886 88.8848H15.4317C14.5588 88.8848 13.8511 89.5585 13.8511 90.3898C13.8511 91.221 14.5588 91.8948 15.4317 91.8948ZM15.4317 79.338H60.1886C60.6079 79.338 61.01 79.1795 61.3064 78.8972C61.6029 78.615 61.7695 78.2322 61.7695 77.833C61.7695 77.4339 61.6029 77.0511 61.3064 76.7688C61.01 76.4866 60.6079 76.328 60.1886 76.328H15.4317C15.0125 76.328 14.6103 76.4866 14.3139 76.7688C14.0174 77.0511 13.8508 77.4339 13.8508 77.833C13.8508 78.2322 14.0174 78.615 14.3139 78.8972C14.6103 79.1795 15.0125 79.338 15.4317 79.338ZM63.3685 11.4507V22.0109C63.3691 22.2602 63.4733 22.4991 63.6585 22.6754C63.8436 22.8516 64.0946 22.9509 64.3565 22.9514H75.4491C75.349 22.746 75.2111 22.5594 75.0417 22.4004L63.9473 11.8385C63.7804 11.6772 63.5843 11.5459 63.3685 11.4507ZM81.8409 36.9992C69.6073 36.9992 59.6902 46.4403 59.6902 58.0867C59.6902 69.7331 69.6073 79.1742 81.8409 79.1742C94.0745 79.1742 103.992 69.7331 103.992 58.0867C103.992 46.4403 94.0745 36.9992 81.8409 36.9992ZM68.7835 59.0806L76.8406 66.7509C77.8281 67.691 79.4293 67.691 80.4168 66.7509C85.2685 62.1321 90.0763 57.4539 94.9052 52.811C95.8873 51.871 95.8829 50.3508 94.8954 49.4158C93.9079 48.4807 92.3111 48.485 91.3289 49.425L78.6248 61.64L72.3599 55.6758C71.3725 54.7357 69.7712 54.7357 68.7835 55.6758C67.796 56.6161 67.796 58.1405 68.7835 59.0806Z" />
    </mask>
    <path fill-rule="evenodd" clip-rule="evenodd"
        d="M1.97606 11.2875H59.8244V22.0109C59.8244 24.391 61.8561 26.3254 64.3565 26.3254H75.6205V34.3488C66.7629 36.4457 59.7227 42.9172 57.1759 51.2145H15.4317C15.0125 51.2145 14.6104 51.3731 14.314 51.6553C14.0175 51.9375 13.851 52.3203 13.851 52.7194C13.851 53.1186 14.0175 53.5013 14.314 53.7836C14.6104 54.0658 15.0125 54.2243 15.4317 54.2243H56.4659C56.2528 55.5018 56.1459 56.7933 56.1461 58.0867C56.1461 60.0438 56.3891 61.947 56.8451 63.7713H15.4317C15.0125 63.7713 14.6104 63.9298 14.314 64.212C14.0175 64.4943 13.851 64.877 13.851 65.2762C13.851 65.6753 14.0175 66.0581 14.314 66.3403C14.6104 66.6225 15.0125 66.7811 15.4317 66.7811H57.8185C60.7813 74.1956 67.4223 79.884 75.6203 81.8247V102.713C75.6203 103.749 74.7327 104.594 73.6442 104.594H1.97606C0.887579 104.594 0 103.749 0 102.713V13.1687C0.000221507 12.1327 0.8878 11.2875 1.97606 11.2875ZM13.8327 0C12.7442 0 11.8566 0.844975 11.8566 1.88121V7.9135H62.5498C64.0337 7.9135 65.4037 8.45376 66.453 9.45267L77.5476 20.0145C78.5969 21.0135 79.1644 22.3177 79.1644 23.7304V33.7568C80.044 33.6697 80.9369 33.625 81.8409 33.625C83.7773 33.625 85.663 33.8304 87.4769 34.217V15.0379H76.2128C73.7125 15.0379 71.6808 13.1038 71.6808 10.7234V0H13.8327ZM87.4771 81.9563V91.4252C87.4771 92.4612 86.5896 93.3064 85.5011 93.3064H79.1646V82.4166C80.0443 82.5037 80.9371 82.5484 81.8411 82.5484C83.7369 82.5488 85.627 82.3502 87.4771 81.9563ZM75.2251 0.163217V10.7234C75.2257 10.9727 75.3299 11.2116 75.5151 11.3879C75.7002 11.5642 75.9512 11.6634 76.2131 11.6639H87.3057C87.2057 11.4585 87.0677 11.2719 86.8983 11.1129L75.8039 0.551016C75.6369 0.389804 75.4409 0.258453 75.2251 0.163217ZM15.4317 41.6676H60.1886C60.3977 41.6699 60.6053 41.6328 60.7993 41.5582C60.9932 41.4836 61.1697 41.3731 61.3185 41.2332C61.4673 41.0932 61.5854 40.9265 61.666 40.7427C61.7467 40.559 61.7882 40.3618 61.7882 40.1627C61.7882 39.9635 61.7467 39.7664 61.666 39.5826C61.5854 39.3989 61.4673 39.2322 61.3185 39.0922C61.1697 38.9522 60.9932 38.8417 60.7993 38.7672C60.6053 38.6926 60.3977 38.6554 60.1886 38.6578H15.4317C15.0157 38.6625 14.6184 38.8231 14.326 39.1048C14.0336 39.3865 13.8696 39.7666 13.8696 40.1627C13.8696 40.5587 14.0336 40.9389 14.326 41.2206C14.6184 41.5023 15.0157 41.6629 15.4317 41.6676ZM15.4317 29.1106H47.5605C47.9797 29.1106 48.3818 28.9521 48.6782 28.6699C48.9747 28.3876 49.1412 28.0048 49.1412 27.6057C49.1412 27.2066 48.9747 26.8238 48.6782 26.5416C48.3818 26.2594 47.9797 26.1008 47.5605 26.1008H15.4317C15.0125 26.1008 14.6104 26.2594 14.314 26.5416C14.0175 26.8238 13.851 27.2066 13.851 27.6057C13.851 28.0048 14.0175 28.3876 14.314 28.6699C14.6104 28.9521 15.0125 29.1106 15.4317 29.1106ZM15.4317 91.8948H60.1886C60.6079 91.8948 61.01 91.7362 61.3064 91.454C61.6029 91.1717 61.7695 90.7889 61.7695 90.3898C61.7695 89.9906 61.6029 89.6078 61.3064 89.3256C61.01 89.0433 60.6079 88.8848 60.1886 88.8848H15.4317C14.5588 88.8848 13.8511 89.5585 13.8511 90.3898C13.8511 91.221 14.5588 91.8948 15.4317 91.8948ZM15.4317 79.338H60.1886C60.6079 79.338 61.01 79.1795 61.3064 78.8972C61.6029 78.615 61.7695 78.2322 61.7695 77.833C61.7695 77.4339 61.6029 77.0511 61.3064 76.7688C61.01 76.4866 60.6079 76.328 60.1886 76.328H15.4317C15.0125 76.328 14.6103 76.4866 14.3139 76.7688C14.0174 77.0511 13.8508 77.4339 13.8508 77.833C13.8508 78.2322 14.0174 78.615 14.3139 78.8972C14.6103 79.1795 15.0125 79.338 15.4317 79.338ZM63.3685 11.4507V22.0109C63.3691 22.2602 63.4733 22.4991 63.6585 22.6754C63.8436 22.8516 64.0946 22.9509 64.3565 22.9514H75.4491C75.349 22.746 75.2111 22.5594 75.0417 22.4004L63.9473 11.8385C63.7804 11.6772 63.5843 11.5459 63.3685 11.4507ZM81.8409 36.9992C69.6073 36.9992 59.6902 46.4403 59.6902 58.0867C59.6902 69.7331 69.6073 79.1742 81.8409 79.1742C94.0745 79.1742 103.992 69.7331 103.992 58.0867C103.992 46.4403 94.0745 36.9992 81.8409 36.9992ZM68.7835 59.0806L76.8406 66.7509C77.8281 67.691 79.4293 67.691 80.4168 66.7509C85.2685 62.1321 90.0763 57.4539 94.9052 52.811C95.8873 51.871 95.8829 50.3508 94.8954 49.4158C93.9079 48.4807 92.3111 48.485 91.3289 49.425L78.6248 61.64L72.3599 55.6758C71.3725 54.7357 69.7712 54.7357 68.7835 55.6758C67.796 56.6161 67.796 58.1405 68.7835 59.0806Z"
        stroke="#C2C2C2" stroke-width="2" mask="url(#path-1-inside-1_278_1336)" />
</svg>