<svg xmlns="http://www.w3.org/2000/svg" width="103" height="29" viewBox="0 0 103 29" fill="none">
    <path
        d="M34.2561 21.1676C33.1468 19.4495 32.2607 18.1915 31.5978 17.3933C30.935 16.5816 30.333 16.0405 29.7919 15.77C29.2643 15.4859 28.6285 15.3439 27.8845 15.3439H27.8642V21.1676H24.6987V6.96338H27.8642V12.503H27.9048C28.6353 12.503 29.2643 12.3677 29.7919 12.0972C30.3195 11.8266 30.8944 11.3058 31.5167 10.5347C32.1525 9.76363 32.9912 8.57319 34.0329 6.96338H37.6245C36.5017 8.7761 35.5953 10.1221 34.9054 11.0014C34.229 11.8807 33.6067 12.503 33.0386 12.8683C32.4704 13.22 31.8143 13.4297 31.0703 13.4973V14.3698C31.8819 14.424 32.5854 14.6404 33.1806 15.0192C33.7893 15.3844 34.4522 16.027 35.1692 16.9469C35.8997 17.8668 36.8534 19.2737 38.0303 21.1676H34.2561Z"
        fill="#212121" />
    <path
        d="M44.9043 21.1473C44.4444 21.1879 44.0182 21.2082 43.6259 21.2082C42.1108 21.2082 41.0286 20.897 40.3792 20.2747C39.7299 19.6525 39.4052 18.6446 39.4052 17.2513V6.96338H42.4084V16.8049C42.4084 17.4407 42.5031 17.8803 42.6925 18.1238C42.8954 18.3538 43.3013 18.4688 43.91 18.4688C44.1941 18.4688 44.5255 18.4485 44.9043 18.4079V21.1473Z"
        fill="#212121" />
    <path
        d="M49.3778 21.4111C48.2415 21.4111 47.3351 21.1473 46.6587 20.6197C45.9959 20.0786 45.6645 19.3548 45.6645 18.4485C45.6645 17.5827 45.9553 16.8725 46.537 16.3179C47.1187 15.7632 47.9168 15.4318 48.9314 15.3236L52.1984 14.9989C52.5907 14.9583 52.8951 14.8501 53.1115 14.6742C53.3415 14.4848 53.4565 14.2481 53.4565 13.964C53.4565 13.6258 53.2874 13.362 52.9492 13.1726C52.611 12.9832 52.1375 12.8886 51.5288 12.8886C50.8794 12.8886 50.3451 13.0103 49.9257 13.2538C49.5199 13.4838 49.2629 13.822 49.1546 14.2684H46.192C46.4085 13.1321 46.9766 12.2527 47.8965 11.6305C48.83 10.9947 50.0272 10.6768 51.4882 10.6768C53.0709 10.6768 54.2884 11.0555 55.1407 11.8131C56.0065 12.5571 56.4393 13.6258 56.4393 15.0192V17.86C56.4393 18.2253 56.534 18.4688 56.7234 18.5905C56.9128 18.6987 57.2848 18.7326 57.8395 18.692V21.1676C57.5013 21.2082 57.1834 21.2284 56.8858 21.2284C55.3706 21.2284 54.6131 20.7076 54.6131 19.666C54.6131 19.3819 54.6604 19.0911 54.7551 18.7934C54.1156 19.3287 52.9424 20.1597 52.1578 20.6603C51.3867 21.1608 50.4601 21.4111 49.3778 21.4111ZM50.1692 19.2196C51.0079 19.2196 51.7452 18.9558 52.381 18.4282C53.0303 17.9006 53.5241 17.1566 53.8623 16.1961C53.5166 16.2673 52.8511 16.5335 52.3186 16.6666C51.9381 16.7718 51.5964 16.8387 51.0823 16.9063L49.9663 17.0484C49.5334 17.1025 49.1952 17.231 48.9517 17.4339C48.7217 17.6368 48.6068 17.8938 48.6068 18.205C48.6068 18.5161 48.742 18.7664 49.0126 18.9558C49.2831 19.1316 49.6687 19.2196 50.1692 19.2196Z"
        fill="#212121" />
    <path
        d="M65.8422 21.127C65.1252 21.1946 64.53 21.2284 64.0565 21.2284C63.0555 21.2284 62.2641 21.0999 61.6824 20.8429C61.1007 20.5723 60.6813 20.1597 60.4243 19.6051C60.1673 19.0369 60.0388 18.2794 60.0388 17.3324V13.4161H58.2328V10.9406C58.8686 10.9406 59.3488 10.8594 59.6735 10.6971C60.0117 10.5212 60.2417 10.2303 60.3634 9.82451C60.4987 9.40515 60.5663 8.7964 60.5663 7.99826H63.4883C63.4342 8.75581 63.2719 9.33751 63.0013 9.74334C62.7443 10.1356 62.2708 10.528 61.5809 10.9203L62.202 10.9406C62.9341 10.9203 63.0419 10.9203 63.6662 10.9406C64.1986 10.9203 64.8885 10.9067 65.7813 10.9203V13.4161H63.0419V17.2107C63.0419 17.7383 63.1501 18.1103 63.3666 18.3267C63.583 18.5432 63.9889 18.6514 64.5841 18.6514C64.8547 18.6514 65.274 18.6176 65.8422 18.5499V21.127Z"
        fill="#212121" />
    <path
        d="M72.8075 21.4314C71.7253 21.4314 70.7512 21.2014 69.8855 20.7414C69.0197 20.268 68.3365 19.6254 67.836 18.8137C67.349 17.9885 67.1055 17.0686 67.1055 16.0541C67.1055 15.0395 67.349 14.1263 67.836 13.3147C68.3365 12.4895 69.0197 11.8469 69.8855 11.387C70.7512 10.9135 71.7253 10.6768 72.8075 10.6768C73.7679 10.6768 74.6473 10.8594 75.4454 11.2246C76.2571 11.5899 76.9267 12.0972 77.4543 12.7465C77.9819 13.3958 78.3201 14.1399 78.4689 14.9786H75.628C75.4251 14.424 75.0801 13.9911 74.5931 13.6799C74.1197 13.3688 73.565 13.2132 72.9292 13.2132C72.0905 13.2132 71.4006 13.477 70.8595 14.0046C70.3319 14.5322 70.0681 15.2153 70.0681 16.0541C70.0681 16.8928 70.3319 17.5759 70.8595 18.1035C71.3871 18.6176 72.077 18.8746 72.9292 18.8746C73.6056 18.8746 74.1873 18.7055 74.6743 18.3673C75.1748 18.0156 75.513 17.5421 75.6889 16.9469H78.5094C78.3742 17.8127 78.0427 18.5905 77.5152 19.2804C76.9876 19.9568 76.3179 20.4844 75.5063 20.8632C74.6946 21.242 73.795 21.4314 72.8075 21.4314Z"
        fill="#212121" />
    <path
        d="M85.4999 21.4314C84.4042 21.4314 83.4167 21.2014 82.5374 20.7414C81.6716 20.268 80.9884 19.6254 80.4879 18.8137C80.0009 18.0021 79.7574 17.0822 79.7574 16.0541C79.7574 15.0259 80.0009 14.1061 80.4879 13.2944C80.9884 12.4692 81.6783 11.8266 82.5576 11.3667C83.437 10.9067 84.4245 10.6768 85.5202 10.6768C86.6295 10.6768 87.6238 10.9135 88.5031 11.387C89.3824 11.8469 90.0656 12.4895 90.5526 13.3147C91.0396 14.1263 91.2831 15.0462 91.2831 16.0744C91.2831 16.372 91.2628 16.6763 91.2222 16.9875H82.6794C82.8147 17.6368 83.1326 18.1576 83.6331 18.5499C84.1472 18.9422 84.7694 19.1384 85.4999 19.1384C86.0411 19.1384 86.5281 19.0369 86.9609 18.834C87.3938 18.6176 87.7456 18.3132 88.0161 17.9209H90.999C90.5932 19.0031 89.8965 19.8621 88.9089 20.4979C87.9349 21.1202 86.7986 21.4314 85.4999 21.4314ZM88.4017 15.1409C88.2528 14.4645 87.9214 13.9302 87.4074 13.5379C86.8933 13.1456 86.2643 12.9494 85.5202 12.9494C84.7762 12.9494 84.1472 13.1523 83.6331 13.5582C83.1326 13.9505 82.8079 14.4781 82.6591 15.1409H88.4017Z"
        fill="#212121" />
    <path
        d="M92.5903 10.9203H95.5529C95.5259 11.3126 95.4582 11.6711 95.35 11.9957C95.2553 12.3204 95.093 12.6789 94.863 13.0712L95.695 13.5176C96.1008 12.5707 96.6013 11.8672 97.1965 11.4073C97.8053 10.9473 98.529 10.7173 99.3678 10.7173C100.518 10.7173 101.41 11.1232 102.046 11.9348C102.682 12.7465 103 13.8761 103 15.3236V21.1676H99.9968V15.8511C99.9968 15.0124 99.8074 14.3766 99.4286 13.9437C99.0634 13.4973 98.5223 13.2741 97.8053 13.2741C97.0883 13.2741 96.5405 13.4973 96.1617 13.9437C95.7829 14.3766 95.5935 15.0124 95.5935 15.8511V21.1676H92.5903V10.9203Z"
        fill="#212121" />
    <path
        d="M3.28095 0H0.0465383C0.27923 7.39515 6.05385 8.99588 8.91208 8.87185V5.49985C4.34202 5.68589 3.2538 1.9108 3.28095 0Z"
        fill="#212121" />
    <path
        d="M9.16804 4.1278L9.09823 0.802304C16.3768 0.51394 18.2508 6.58122 18.2779 9.6509V20.0343C17.4868 26.2667 12.7049 28.2202 10.4129 28.4178C2.51074 28.9946 0.178397 22.7823 0 19.6041V8.56954H3.24604V19.6041C3.99066 23.0459 6.20122 25.7319 10.4129 25.104C13.7823 24.6017 14.8031 21.5149 14.8922 20.0343V14.0578C14.9853 13.019 15.0295 10.2369 14.4618 7.4184C13.894 4.59988 10.696 4.05028 9.16804 4.1278Z"
        fill="#212121" />
</svg>