<svg width="290" height="44" viewBox="0 0 290 44" fill="none" xmlns="http://www.w3.org/2000/svg">
    <path
        d="M48.3103 22.3825L47.9679 17.9766L43.6992 16.2214L32.2217 0.886719L30.2148 3.56887L31.2185 4.91072L37.899 13.8375L26.1465 9.00575L23.7118 12.2575L39.6869 17.4141L20.3028 16.8125L16.9913 21.2374L15.6008 23.0952L41.5139 19.7029L9.39963 31.3804L0 43.9399H14.649L43.4443 22.1653L26.8923 43.9399H36.1285L45.2367 24.433L44.6269 43.9399H49.9868L48.7762 28.3699L59.3704 42.526L60.4286 43.9399H64.4444L48.3103 22.3825Z"
        fill="#1B4677" />
    <path
        d="M96.0132 35.3289H92.0234H86.649L92.2178 26.2129L97.9511 35.3289H96.0132ZM88.7014 22.4307L75.1875 43.94H81.3896L84.4787 38.8835H86.6615H96.0132H100.186L103.367 43.94H112.524L98.9968 22.4307H88.7014Z"
        fill="#1B4677" />
    <path
        d="M140.227 29.317C140.104 30.6358 138.815 31.5773 137.601 31.5888H122.675V26.0658L137.601 26.0718C139.208 26.0718 140.407 27.3781 140.227 29.317ZM141.887 22.4087H114.842V43.9185H122.675V35.2519H141.887C150.074 35.2519 150.081 22.4087 141.887 22.4087Z"
        fill="#1B4677" />
    <path
        d="M171.552 33.1317L171.128 32.7543L183.324 22.395H176.692L158.41 37.9234V22.395H150.578V43.8963H158.009L158.409 43.557L166.012 37.1001L169.401 40.1146L170.734 41.3083C170.769 41.3383 170.803 41.3628 170.838 41.3928L173.701 43.9398L183.959 43.9053C179.706 40.2207 175.79 36.8293 171.535 33.1462L171.552 33.1317Z"
        fill="#1B4677" />
    <path
        d="M244.584 39.909C244.095 40.1593 243.542 40.3004 242.965 40.3004H232.134C231.555 40.3004 231.003 40.1593 230.514 39.908C228.199 38.9346 226.524 36.2574 226.524 33.1298C226.524 30.0022 228.199 27.3265 230.514 26.3516C231.003 26.1008 231.554 25.9592 232.134 25.9592H242.965C243.545 25.9592 244.095 26.1009 244.585 26.3506C246.9 27.3246 248.575 30.0012 248.575 33.1298C248.575 36.2584 246.9 38.9361 244.584 39.909ZM246.022 22.3892H229.078C223.373 22.3892 218.691 27.222 218.691 33.1298C218.691 39.0377 223.365 43.8704 229.078 43.8704H246.022C251.734 43.8704 256.408 39.0377 256.408 33.1298C256.408 27.222 251.73 22.3892 246.022 22.3892Z"
        fill="#1B4677" />
    <path d="M185.184 22.4077V26.0133H197.762V43.939H205.594V26.0133H218.692V22.4077H185.184Z" fill="#1B4677" />
    <path
        d="M269.765 22.4019C264.053 22.4019 259.379 27.2356 259.379 33.1425C259.379 39.0493 264.053 43.8826 269.765 43.8826L286.244 43.8926V43.8956H290.001V41.275V40.3266H286.244L272.821 40.3136C272.242 40.3136 271.691 40.1714 271.202 39.9207C268.886 38.9467 267.211 36.2711 267.211 33.1425C267.211 30.0149 268.886 27.3382 271.201 26.3643C271.691 26.114 272.241 25.9718 272.821 25.9718H273.126L277.73 25.9864H286.112H286.846H290.001V25.0389V22.4153L269.765 22.4019Z"
        fill="#1B4677" />
</svg>