<svg xmlns="http://www.w3.org/2000/svg" width="78" height="73" viewBox="0 0 78 73" fill="none">
    <path fill-rule="evenodd" clip-rule="evenodd"
        d="M38.2079 18C38.2079 17.5959 38.5355 17.2683 38.9396 17.2683H46.2088C46.4657 17.2683 46.7037 17.403 46.836 17.6231C46.9683 17.8433 46.9755 18.1167 46.8549 18.3435L45.5841 20.7343L46.8549 23.125C46.9755 23.3518 46.9683 23.6252 46.836 23.8453C46.7037 24.0655 46.4657 24.2001 46.2088 24.2001H39.6714V26.8694H54.9392C55.3433 26.8694 55.6709 27.197 55.6709 27.6011V31.5523H56.9117C57.3159 31.5523 57.6435 31.8799 57.6435 32.284V35.5036C57.6435 35.9077 57.3159 36.2353 56.9117 36.2353H55.6709V50.0488H56.9117C57.3159 50.0488 57.6435 50.3764 57.6435 50.7805V54C57.6435 54.4041 57.3159 54.7317 56.9117 54.7317H20.9675C20.5634 54.7317 20.2358 54.4041 20.2358 54V50.7805C20.2358 50.3764 20.5634 50.0488 20.9675 50.0488H22.2084V36.2353H20.9675C20.5634 36.2353 20.2358 35.9077 20.2358 35.5036V32.284C20.2358 31.8799 20.5634 31.5523 20.9675 31.5523H22.2084V27.6011C22.2084 27.197 22.536 26.8694 22.9401 26.8694H38.2079V18ZM23.6718 31.5523H54.2075V28.3328H23.6718V31.5523ZM23.6718 36.2353V50.0488H25.1307V36.2353H23.6718ZM26.5941 36.2353V50.0488H29.4776V36.2353H26.5941ZM30.941 36.2353V50.0488H32.3999V36.2353H30.941ZM33.8633 36.2353V50.0488H36.7468V36.2353H33.8633ZM38.2102 36.2353V50.0488H39.6691V36.2353H38.2102ZM41.1325 36.2353V50.0488H44.016V36.2353H41.1325ZM45.4794 36.2353V50.0488H46.9383V36.2353H45.4794ZM48.4017 36.2353V50.0488H51.2852V36.2353H48.4017ZM52.7486 36.2353V50.0488H54.2075V36.2353H52.7486ZM39.6714 22.7367H44.9912L44.1094 21.0777C43.9952 20.863 43.9952 20.6056 44.1093 20.3908L44.9912 18.7317H39.6714V22.7367ZM21.6993 33.0157V34.7718H56.18V33.0157H21.6993ZM21.6993 51.5122V53.2683H56.18V51.5122H21.6993Z"
        fill="#1B4677" />
</svg>