<svg xmlns="http://www.w3.org/2000/svg" width="78" height="73" viewBox="0 0 78 73" fill="none">
    <path
        d="M58.6982 20.4355C58.6043 20.3625 58.4949 20.3119 58.3784 20.2875C58.2619 20.2632 58.1414 20.2658 58.0261 20.2951L54.3092 21.2402C53.712 21.3919 53.0982 21.4687 52.482 21.4688H47.0274C45.2579 21.4688 43.7799 22.7384 43.513 24.4878C43.3635 25.4682 42.535 26.1798 41.5433 26.1798H41.3437V24.5479C42.6911 23.7457 43.5962 22.275 43.5962 20.5962C43.5962 18.0619 41.5344 16 38.9999 16C36.4655 16 34.4037 18.0619 34.4037 20.5962C34.4037 22.275 35.3088 23.7457 36.6562 24.5479V26.1798H36.4566C35.4649 26.1798 34.6363 25.4682 34.4868 24.4878C34.2199 22.7384 32.7419 21.4688 30.9725 21.4688H25.5179C24.9017 21.4688 24.2879 21.392 23.6907 21.2402L19.9737 20.2952C19.8584 20.2659 19.7379 20.2633 19.6215 20.2876C19.505 20.312 19.3956 20.3626 19.3017 20.4356C19.2078 20.5087 19.1318 20.6022 19.0795 20.7091C19.0272 20.8159 19 20.9333 19 21.0523C19 22.7015 19.6362 24.2043 20.6751 25.3303C20.698 27.2263 21.5963 28.9144 22.984 30.0102L23.719 30.9924C25.3947 33.232 28.0652 34.5692 30.8625 34.5692C33.0083 34.5692 35.0418 33.8149 36.6562 32.4327V35.2188H35.9555C33.1698 35.2188 30.9034 37.4852 30.9034 40.2709C30.9034 41.1222 31.1194 41.964 31.5279 42.7056C31.5774 42.7955 31.6441 42.8748 31.7242 42.9389C31.8043 43.003 31.8963 43.0506 31.9949 43.0792C32.0934 43.1077 32.1966 43.1166 32.2986 43.1052C32.4006 43.0938 32.4993 43.0625 32.5892 43.0129C32.9671 42.8047 33.1047 42.3296 32.8965 41.9517C32.6149 41.4404 32.4659 40.8592 32.4659 40.2709C32.4659 38.3467 34.0313 36.7813 35.9555 36.7813H36.6562V43.7604H34.8203C32.7597 43.7604 31.0833 45.4368 31.0833 47.4975C31.0833 49.558 32.7597 51.2344 34.8203 51.2344H36.9924C37.2633 52.7014 37.6965 54.1363 38.2917 55.5263C38.3519 55.6669 38.452 55.7867 38.5797 55.8709C38.7074 55.9551 38.8569 56 39.0098 56H39.0112C39.1644 55.9997 39.3142 55.9545 39.4418 55.8698C39.5694 55.7851 39.6694 55.6647 39.7291 55.5237L39.7445 55.4873C40.3232 54.1207 40.7495 52.6944 41.0159 51.2344H41.9036C42.7867 51.2344 43.5051 51.9528 43.5051 52.8359C43.5051 53.7191 42.7867 54.4375 41.9036 54.4375H41.8505C41.4191 54.4375 41.0693 54.7873 41.0693 55.2188C41.0693 55.6502 41.4191 56 41.8505 56H41.9036C43.6483 56 45.0676 54.5806 45.0676 52.8359C45.0676 51.0913 43.6483 49.6719 41.9036 49.6719H41.238C41.3084 48.9832 41.3437 48.2913 41.3437 47.599V45.3229H41.8645C44.6502 45.3229 46.9165 43.0566 46.9165 40.2709C46.9165 37.4852 44.6502 35.2188 41.8645 35.2188H41.3437V32.4327C42.9581 33.815 44.9915 34.5692 47.1373 34.5692C49.9346 34.5692 52.6049 33.2321 54.2809 30.9924L55.0158 30.0102C56.4036 28.9144 57.3019 27.2262 57.3247 25.3302C58.3637 24.2043 58.9998 22.7015 58.9998 21.0523C58.9998 20.8112 58.8885 20.5836 58.6982 20.4355ZM36.0377 30.8796C34.6509 32.2513 32.813 33.0067 30.8625 33.0067C29.1248 33.0067 27.4466 32.381 26.1334 31.2829C26.3314 31.3025 26.5303 31.3124 26.7293 31.3125H28.0375C28.4689 31.3125 28.8188 30.9627 28.8188 30.5313C28.8188 30.0999 28.4689 29.75 28.0375 29.75H26.7293C24.752 29.75 23.0701 28.4655 22.4709 26.6875C23.3518 27.1347 24.3259 27.3674 25.3138 27.3669L26.9297 27.3671C27.361 27.3671 27.7109 27.0174 27.711 26.586C27.7111 26.1546 27.3613 25.8047 26.9298 25.8046L25.314 25.8044C23.0489 25.8041 21.1489 24.2106 20.6758 22.0858L23.3058 22.7545C24.0288 22.9383 24.7719 23.0313 25.5179 23.0313H30.9725C31.9642 23.0313 32.7927 23.7429 32.9422 24.7233C33.2091 26.4727 34.6871 27.7423 36.4566 27.7423H36.6562V30.2679L36.0377 30.8796ZM34.8203 49.6718C33.6213 49.6718 32.6458 48.6964 32.6458 47.4974C32.6458 46.2983 33.6213 45.3229 34.8203 45.3229H36.6562V47.5525C36.6562 48.2643 36.6936 48.9711 36.7667 49.6718H34.8203ZM39.7812 47.5989C39.7812 49.418 39.5212 51.2032 39.0069 52.9281C38.4832 51.1889 38.2187 49.3885 38.2187 47.5525V45.3229H39.7812V47.5989ZM39.7812 43.7604H38.2187V25.1247C38.4727 25.1685 38.7335 25.1925 38.9999 25.1925C39.2663 25.1925 39.5271 25.1685 39.7812 25.1247V43.7604ZM41.8645 36.7812C43.7887 36.7812 45.354 38.3466 45.354 40.2708C45.354 42.195 43.7887 43.7604 41.8645 43.7604H41.3437V36.7812H41.8645ZM38.9999 23.63C37.327 23.63 35.9662 22.269 35.9662 20.5962C35.9662 18.9234 37.3271 17.5625 38.9999 17.5625C40.6727 17.5625 42.0337 18.9234 42.0337 20.5962C42.0337 22.269 40.6728 23.63 38.9999 23.63ZM52.6859 25.8044L51.0702 25.8046C50.6387 25.8047 50.2889 26.1546 50.289 26.586C50.2891 27.0175 50.6389 27.3672 51.0703 27.3671L52.6862 27.3669C53.6741 27.3675 54.6482 27.1347 55.5291 26.6875C54.9299 28.4655 53.2479 29.75 51.2707 29.75H49.9624C49.531 29.75 49.1811 30.0999 49.1811 30.5313C49.1811 30.9627 49.531 31.3125 49.9624 31.3125H51.2707C51.4696 31.3124 51.6684 31.3025 51.8664 31.2829C50.5532 32.381 48.875 33.0067 47.1374 33.0067C45.1869 33.0067 43.349 32.2513 41.9623 30.8797L41.3437 30.2679V27.7423H41.5433C43.3127 27.7423 44.7908 26.4727 45.0576 24.7233C45.2072 23.7429 46.0356 23.0313 47.0274 23.0313H52.482C53.2273 23.0313 53.9715 22.9383 54.6941 22.7545L57.3241 22.0858C56.8509 24.2105 54.951 25.8041 52.6859 25.8044ZM36.4272 54.6663C36.282 54.5209 36.0804 54.4374 35.8749 54.4374C35.6695 54.4374 35.4679 54.5209 35.3226 54.6663C35.1773 54.8117 35.0937 55.0132 35.0937 55.2187C35.0937 55.4241 35.1772 55.6257 35.3226 55.7709C35.4679 55.9163 35.6695 55.9999 35.8749 55.9999C36.0804 55.9999 36.282 55.9163 36.4272 55.7709C36.5725 55.6257 36.6562 55.4241 36.6562 55.2187C36.6562 55.0132 36.5726 54.8116 36.4272 54.6663Z"
        fill="#1B4677" />
</svg>