<svg xmlns="http://www.w3.org/2000/svg" width="78" height="73" viewBox="0 0 78 73" fill="none">
    <path
        d="M55.3646 50.7393V45.5467C55.7341 45.4166 56.0456 45.1598 56.244 44.822C56.4424 44.4841 56.5148 44.0869 56.4484 43.7008C56.382 43.3147 56.1811 42.9645 55.8813 42.7123C55.5815 42.4602 55.2021 42.3222 54.8103 42.323H51.9368C52.0025 42.1454 52.037 41.9579 52.0388 41.7687C52.0378 41.4259 51.9307 41.0918 51.7322 40.8123C51.5337 40.5328 51.2535 40.3217 50.9302 40.2078V38.9972H52.6929L51.724 33.1816C51.9675 32.9475 52.1453 32.6535 52.2394 32.329C52.3336 32.0046 52.3408 31.6611 52.2604 31.333C52.18 31.0049 52.0148 30.7036 51.7814 30.4595C51.5479 30.2153 51.2544 30.0367 50.9302 29.9417V27.5294L49.4868 26.9796L54.0853 25.1399L38.7358 19L23.3863 25.1399L29.8671 27.7323V34.5629H27.6499C26.7116 34.5619 25.7971 34.8589 25.0384 35.4112C24.2797 35.9634 23.7161 36.7424 23.4287 37.6357C23.1413 38.529 23.145 39.4905 23.4394 40.3815C23.7337 41.2726 24.3034 42.0471 25.0664 42.5934C23.7413 43.0122 22.6098 43.8912 21.8764 45.0717C21.143 46.2521 20.8563 47.656 21.0679 49.0295C21.2796 50.4029 21.9757 51.6553 23.0304 52.5602C24.0851 53.4651 25.4288 53.9627 26.8185 53.9631H54.8103C55.2021 53.9638 55.5815 53.8259 55.8813 53.5737C56.1811 53.3215 56.382 52.9713 56.4484 52.5852C56.5148 52.1991 56.4424 51.8019 56.244 51.4641C56.0456 51.1262 55.7341 50.8695 55.3646 50.7393ZM54.256 46.7573H44.2787V47.8659H54.256V50.6373H26.7204C26.0589 50.6373 25.4244 50.3745 24.9567 49.9068C24.4889 49.439 24.2261 48.8046 24.2261 48.143C24.2261 47.4815 24.4889 46.847 24.9567 46.3793C25.4244 45.9115 26.0589 45.6487 26.7204 45.6487H54.256V46.7573ZM49.8216 40.1058H27.6499C27.3559 40.1058 27.074 39.989 26.8661 39.7811C26.6582 39.5732 26.5414 39.2912 26.5414 38.9972C26.5414 38.7032 26.6582 38.4212 26.8661 38.2133C27.074 38.0054 27.3559 37.8886 27.6499 37.8886H34.2882C35.739 38.2725 37.2351 38.4589 38.7358 38.4429C40.2365 38.4589 41.7325 38.2725 43.1834 37.8886H48.2436L48.0584 38.9972H49.8216V40.1058ZM47.2991 35.6714H48.6133L48.4287 36.78H45.864C46.3899 36.4769 46.873 36.104 47.2991 35.6714ZM51.3842 37.8886H49.3677L50.0655 33.6998C50.2703 33.7416 50.4815 33.7416 50.6863 33.6998L51.3842 37.8886ZM51.2074 31.7914C51.2074 31.9558 51.1586 32.1166 51.0672 32.2533C50.9759 32.3901 50.846 32.4966 50.6941 32.5595C50.5422 32.6225 50.375 32.6389 50.2137 32.6069C50.0524 32.5748 49.9043 32.4956 49.788 32.3793C49.6717 32.263 49.5925 32.1149 49.5605 31.9536C49.5284 31.7923 49.5449 31.6251 49.6078 31.4732C49.6707 31.3213 49.7773 31.1914 49.914 31.1001C50.0507 31.0087 50.2115 30.96 50.3759 30.96C50.5963 30.9603 50.8077 31.0479 50.9635 31.2038C51.1194 31.3597 51.2071 31.571 51.2074 31.7914ZM49.8216 28.2938V29.9423C49.4975 30.0373 49.2039 30.2158 48.9705 30.46C48.737 30.7042 48.5718 31.0054 48.4914 31.3335C48.411 31.6617 48.4183 32.0051 48.5124 32.3296C48.6066 32.654 48.7843 32.948 49.0279 33.1821L48.7979 34.5629H47.6045V27.7323L47.9675 27.5871L49.8216 28.2938ZM38.7358 20.1939L51.1009 25.1399L47.9581 26.397L38.9331 22.9588L38.5385 23.9953L46.4388 27.0051L38.7358 30.0858L26.3706 25.1399L38.7358 20.1939ZM38.7358 31.2798L46.4959 28.1758V34.9071C45.9992 35.422 43.8103 37.3343 38.7358 37.3343C33.6557 37.3343 31.4679 35.4176 30.9757 34.9076V28.1758L38.7358 31.2798ZM24.3242 38.9972C24.3252 38.1155 24.6759 37.2701 25.2994 36.6467C25.9229 36.0232 26.7682 35.6725 27.6499 35.6714H30.1725C30.5985 36.104 31.0811 36.4769 31.607 36.78H27.6499C27.0619 36.78 26.498 37.0136 26.0822 37.4294C25.6664 37.8452 25.4328 38.4092 25.4328 38.9972C25.4328 39.5852 25.6664 40.1492 26.0822 40.565C26.498 40.9808 27.0619 41.2144 27.6499 41.2144H50.3759C50.5229 41.2144 50.6639 41.2728 50.7679 41.3767C50.8718 41.4807 50.9302 41.6217 50.9302 41.7687C50.9302 41.9157 50.8718 42.0567 50.7679 42.1606C50.6639 42.2646 50.5229 42.323 50.3759 42.323H27.6499C26.7682 42.3219 25.9229 41.9712 25.2994 41.3477C24.6759 40.7242 24.3252 39.8789 24.3242 38.9972ZM54.8103 52.8545H26.8185C25.5689 52.8545 24.3706 52.3581 23.487 51.4745C22.6034 50.591 22.107 49.3926 22.107 48.143C22.107 46.8935 22.6034 45.6951 23.487 44.8115C24.3706 43.9279 25.5689 43.4315 26.8185 43.4315H54.8103C54.9573 43.4315 55.0983 43.4899 55.2022 43.5939C55.3062 43.6978 55.3646 43.8388 55.3646 43.9858C55.3646 44.1328 55.3062 44.2738 55.2022 44.3778C55.0983 44.4817 54.9573 44.5401 54.8103 44.5401H26.7204C25.7649 44.5401 24.8484 44.9197 24.1728 45.5954C23.4971 46.2711 23.1175 47.1875 23.1175 48.143C23.1175 49.0986 23.4971 50.015 24.1728 50.6907C24.8484 51.3663 25.7649 51.7459 26.7204 51.7459H54.8103C54.9573 51.7459 55.0983 51.8043 55.2022 51.9083C55.3062 52.0122 55.3646 52.1532 55.3646 52.3002C55.3646 52.4472 55.3062 52.5882 55.2022 52.6922C55.0983 52.7961 54.9573 52.8545 54.8103 52.8545Z"
        fill="#1B4677" />
    <path d="M26.5405 48.4198H42.0607V49.5284H26.5405V48.4198Z" fill="#1B4677" />
</svg>