<svg xmlns="http://www.w3.org/2000/svg" width="78" height="73" viewBox="0 0 78 73" fill="none">
    <path fill-rule="evenodd" clip-rule="evenodd"
        d="M38.5159 17C38.5159 16.5735 38.8617 16.2277 39.2882 16.2277H51.6459C52.0725 16.2277 52.4183 16.5735 52.4183 17V19.317H53.1912C53.6178 19.317 53.9636 19.6628 53.9636 20.0894V39.8633C53.9636 40.2898 53.6178 40.6356 53.1912 40.6356C52.7646 40.6356 52.4188 40.2898 52.4188 39.8633V20.8617H51.6569L51.6459 20.8618H39.2882L39.2773 20.8617H38.5164V51.1382H40.0608V50.7614C40.0608 50.3349 40.4066 49.9891 40.8331 49.9891C41.2597 49.9891 41.6055 50.3349 41.6055 50.7614V51.1382H43.1502V50.7614C43.1502 50.3349 43.496 49.9891 43.9226 49.9891C44.3491 49.9891 44.6949 50.3349 44.6949 50.7614V51.1382H46.2397V50.7614C46.2397 50.3349 46.5854 49.9891 47.012 49.9891C47.4386 49.9891 47.7844 50.3349 47.7844 50.7614V51.1382H49.3291V50.7614C49.3291 50.3349 49.6749 49.9891 50.1014 49.9891C50.528 49.9891 50.8738 50.3349 50.8738 50.7614V51.1382H52.4188V46.8273C52.4188 46.4008 52.7646 46.055 53.1912 46.055C53.6178 46.055 53.9636 46.4008 53.9636 46.8273V54.9999C53.9636 55.4265 53.6178 55.7723 53.1912 55.7723H37.7523L37.7438 55.7724H33.6951L33.6886 55.7724H29.0545L29.048 55.7724H24.9999C24.5733 55.7724 24.2275 55.4266 24.2275 55V27.2855C24.2275 26.9618 24.4293 26.6725 24.733 26.5607L36.9717 22.0546V20.0894C36.9717 19.6628 37.3175 19.317 37.744 19.317H38.5159V17ZM50.8736 17.7724V19.317H40.0606V17.7724H50.8736ZM36.9711 51.9106L36.9714 51.8891V23.7008L25.7723 27.8242V54.2276H28.2821V50.3659C27.8556 50.3659 27.5098 50.0201 27.5098 49.5935C27.5098 49.167 27.8556 48.8212 28.2821 48.8212H34.461C34.8875 48.8212 35.2333 49.167 35.2333 49.5935C35.2333 50.0201 34.8875 50.3659 34.461 50.3659V54.2276H36.9714V51.9321L36.9711 51.9106ZM32.9163 54.2277H29.8268V50.3659H32.9163V54.2277ZM40.8211 52.6829H38.5164V54.2276H52.4188V52.6829H50.1135L50.1014 52.683L50.0894 52.6829H47.024L47.012 52.683L47 52.6829H43.9346L43.9226 52.683L43.9106 52.6829H40.8452L40.8331 52.683L40.8211 52.6829ZM40.8331 22.4066C41.2597 22.4066 41.6055 22.7524 41.6055 23.179V24.3282C41.6055 24.7548 41.2597 25.1006 40.8331 25.1006C40.4066 25.1006 40.0608 24.7548 40.0608 24.3282V23.179C40.0608 22.7524 40.4066 22.4066 40.8331 22.4066ZM43.9226 22.4066C44.3491 22.4066 44.6949 22.7524 44.6949 23.179V24.3282C44.6949 24.7548 44.3491 25.1006 43.9226 25.1006C43.496 25.1006 43.1502 24.7548 43.1502 24.3282V23.179C43.1502 22.7524 43.496 22.4066 43.9226 22.4066ZM47.012 22.4066C47.4386 22.4066 47.7844 22.7524 47.7844 23.179V24.3282C47.7844 24.7548 47.4386 25.1006 47.012 25.1006C46.5854 25.1006 46.2397 24.7548 46.2397 24.3282V23.179C46.2397 22.7524 46.5854 22.4066 47.012 22.4066ZM50.1014 22.4066C50.528 22.4066 50.8738 22.7524 50.8738 23.179V24.3282C50.8738 24.7548 50.528 25.1006 50.1014 25.1006C49.6749 25.1006 49.3291 24.7548 49.3291 24.3282V23.179C49.3291 22.7524 49.6749 22.4066 50.1014 22.4066ZM40.8331 27.0037C41.2597 27.0037 41.6055 27.3495 41.6055 27.776V30.0746C41.6055 30.5011 41.2597 30.8469 40.8331 30.8469C40.4066 30.8469 40.0608 30.5011 40.0608 30.0746V27.776C40.0608 27.3495 40.4066 27.0037 40.8331 27.0037ZM43.9226 27.0037C44.3491 27.0037 44.6949 27.3495 44.6949 27.776V30.0746C44.6949 30.5011 44.3491 30.8469 43.9226 30.8469C43.496 30.8469 43.1502 30.5011 43.1502 30.0746V27.776C43.1502 27.3495 43.496 27.0037 43.9226 27.0037ZM47.012 27.0037C47.4386 27.0037 47.7844 27.3495 47.7844 27.776V30.0746C47.7844 30.5011 47.4386 30.8469 47.012 30.8469C46.5854 30.8469 46.2397 30.5011 46.2397 30.0746V27.776C46.2397 27.3495 46.5854 27.0037 47.012 27.0037ZM50.1014 27.0037C50.528 27.0037 50.8738 27.3495 50.8738 27.776V30.0746C50.8738 30.5011 50.528 30.8469 50.1014 30.8469C49.6749 30.8469 49.3291 30.5011 49.3291 30.0746V27.776C49.3291 27.3495 49.6749 27.0037 50.1014 27.0037ZM40.8331 32.75C41.2597 32.75 41.6055 33.0958 41.6055 33.5224V35.8209C41.6055 36.2475 41.2597 36.5933 40.8331 36.5933C40.4066 36.5933 40.0608 36.2475 40.0608 35.8209V33.5224C40.0608 33.0958 40.4066 32.75 40.8331 32.75ZM43.9226 32.75C44.3491 32.75 44.6949 33.0958 44.6949 33.5224V35.8209C44.6949 36.2475 44.3491 36.5933 43.9226 36.5933C43.496 36.5933 43.1502 36.2475 43.1502 35.8209V33.5224C43.1502 33.0958 43.496 32.75 43.9226 32.75ZM47.012 32.75C47.4386 32.75 47.7844 33.0958 47.7844 33.5224V35.8209C47.7844 36.2475 47.4386 36.5933 47.012 36.5933C46.5854 36.5933 46.2397 36.2475 46.2397 35.8209V33.5224C46.2397 33.0958 46.5854 32.75 47.012 32.75ZM50.1014 32.75C50.528 32.75 50.8738 33.0958 50.8738 33.5224V35.8209C50.8738 36.2475 50.528 36.5933 50.1014 36.5933C49.6749 36.5933 49.3291 36.2475 49.3291 35.8209V33.5224C49.3291 33.0958 49.6749 32.75 50.1014 32.75ZM40.8331 38.4964C41.2597 38.4964 41.6055 38.8422 41.6055 39.2687V41.5673C41.6055 41.9938 41.2597 42.3396 40.8331 42.3396C40.4066 42.3396 40.0608 41.9938 40.0608 41.5673V39.2687C40.0608 38.8422 40.4066 38.4964 40.8331 38.4964ZM43.9226 38.4964C44.3491 38.4964 44.6949 38.8422 44.6949 39.2687V41.5673C44.6949 41.9938 44.3491 42.3396 43.9226 42.3396C43.496 42.3396 43.1502 41.9938 43.1502 41.5673V39.2687C43.1502 38.8422 43.496 38.4964 43.9226 38.4964ZM47.012 38.4964C47.4386 38.4964 47.7844 38.8422 47.7844 39.2687V41.5673C47.7844 41.9938 47.4386 42.3396 47.012 42.3396C46.5854 42.3396 46.2397 41.9938 46.2397 41.5673V39.2687C46.2397 38.8422 46.5854 38.4964 47.012 38.4964ZM50.1014 38.4964C50.528 38.4964 50.8738 38.8422 50.8738 39.2687V41.5673C50.8738 41.9938 50.528 42.3396 50.1014 42.3396C49.6749 42.3396 49.3291 41.9938 49.3291 41.5673V39.2687C49.3291 38.8422 49.6749 38.4964 50.1014 38.4964ZM40.8331 44.2427C41.2597 44.2427 41.6055 44.5885 41.6055 45.0151V47.3136C41.6055 47.7402 41.2597 48.086 40.8331 48.086C40.4066 48.086 40.0608 47.7402 40.0608 47.3136V45.0151C40.0608 44.5885 40.4066 44.2427 40.8331 44.2427ZM43.9226 44.2427C44.3491 44.2427 44.6949 44.5885 44.6949 45.0151V47.3136C44.6949 47.7402 44.3491 48.086 43.9226 48.086C43.496 48.086 43.1502 47.7402 43.1502 47.3136V45.0151C43.1502 44.5885 43.496 44.2427 43.9226 44.2427ZM47.012 44.2427C47.4386 44.2427 47.7844 44.5885 47.7844 45.0151V47.3136C47.7844 47.7402 47.4386 48.086 47.012 48.086C46.5854 48.086 46.2397 47.7402 46.2397 47.3136V45.0151C46.2397 44.5885 46.5854 44.2427 47.012 44.2427ZM50.1014 44.2427C50.528 44.2427 50.8738 44.5885 50.8738 45.0151V47.3136C50.8738 47.7402 50.528 48.086 50.1014 48.086C49.6749 48.086 49.3291 47.7402 49.3291 47.3136V45.0151C49.3291 44.5885 49.6749 44.2427 50.1014 44.2427ZM29.0545 29.1261C29.0545 28.6996 28.7087 28.3538 28.2821 28.3538C27.8556 28.3538 27.5098 28.6996 27.5098 29.1261V30.2847C27.5098 30.7112 27.8556 31.057 28.2821 31.057C28.7087 31.057 29.0545 30.7112 29.0545 30.2847V29.1261ZM32.1439 29.1261C32.1439 28.6996 31.7981 28.3538 31.3716 28.3538C30.945 28.3538 30.5992 28.6996 30.5992 29.1261V30.2847C30.5992 30.7112 30.945 31.057 31.3716 31.057C31.7981 31.057 32.1439 30.7112 32.1439 30.2847V29.1261ZM35.2333 29.1261C35.2333 28.6996 34.8875 28.3538 34.461 28.3538C34.0344 28.3538 33.6886 28.6996 33.6886 29.1261V30.2847C33.6886 30.7112 34.0344 31.057 34.461 31.057C34.8875 31.057 35.2333 30.7112 35.2333 30.2847V29.1261ZM29.0545 33.7603C29.0545 33.3337 28.7087 32.9879 28.2821 32.9879C27.8556 32.9879 27.5098 33.3337 27.5098 33.7603V36.0773C27.5098 36.5039 27.8556 36.8497 28.2821 36.8497C28.7087 36.8497 29.0545 36.5039 29.0545 36.0773V33.7603ZM32.1439 33.7603C32.1439 33.3337 31.7981 32.9879 31.3716 32.9879C30.945 32.9879 30.5992 33.3337 30.5992 33.7603V36.0773C30.5992 36.5039 30.945 36.8497 31.3716 36.8497C31.7981 36.8497 32.1439 36.5039 32.1439 36.0773V33.7603ZM35.2333 33.7603C35.2333 33.3337 34.8875 32.9879 34.461 32.9879C34.0344 32.9879 33.6886 33.3337 33.6886 33.7603V36.0773C33.6886 36.5039 34.0344 36.8497 34.461 36.8497C34.8875 36.8497 35.2333 36.5039 35.2333 36.0773V33.7603ZM29.0545 39.5529C29.0545 39.1264 28.7087 38.7806 28.2821 38.7806C27.8556 38.7806 27.5098 39.1264 27.5098 39.5529V41.87C27.5098 42.2966 27.8556 42.6424 28.2821 42.6424C28.7087 42.6424 29.0545 42.2966 29.0545 41.87V39.5529ZM32.1439 39.5529C32.1439 39.1264 31.7981 38.7806 31.3716 38.7806C30.945 38.7806 30.5992 39.1264 30.5992 39.5529V41.87C30.5992 42.2966 30.945 42.6424 31.3716 42.6424C31.7981 42.6424 32.1439 42.2966 32.1439 41.87V39.5529ZM35.2333 39.5529C35.2333 39.1264 34.8875 38.7806 34.461 38.7806C34.0344 38.7806 33.6886 39.1264 33.6886 39.5529V41.87C33.6886 42.2966 34.0344 42.6424 34.461 42.6424C34.8875 42.6424 35.2333 42.2966 35.2333 41.87V39.5529ZM29.0545 45.3456C29.0545 44.9191 28.7087 44.5733 28.2821 44.5733C27.8556 44.5733 27.5098 44.9191 27.5098 45.3456V46.5042C27.5098 46.9307 27.8556 47.2765 28.2821 47.2765C28.7087 47.2765 29.0545 46.9307 29.0545 46.5042V45.3456ZM32.1439 45.3456C32.1439 44.9191 31.7981 44.5733 31.3716 44.5733C30.945 44.5733 30.5992 44.9191 30.5992 45.3456V46.5042C30.5992 46.9307 30.945 47.2765 31.3716 47.2765C31.7981 47.2765 32.1439 46.9307 32.1439 46.5042V45.3456ZM35.2333 45.3456C35.2333 44.9191 34.8875 44.5733 34.461 44.5733C34.0344 44.5733 33.6886 44.9191 33.6886 45.3456V46.5042C33.6886 46.9307 34.0344 47.2765 34.461 47.2765C34.8875 47.2765 35.2333 46.9307 35.2333 46.5042V45.3456Z"
        fill="#1B4677" />
</svg>