<svg width="120" height="120" viewBox="0 0 120 120" fill="none" xmlns="http://www.w3.org/2000/svg">
    <mask id="path-1-inside-1_2092_2153" fill="white">
        <path fill-rule="evenodd" clip-rule="evenodd"
            d="M9.98022 18.9906H67.8286V29.714C67.8286 32.0942 69.8602 34.0285 72.3606 34.0285H83.6247V42.0519C74.7671 44.1488 67.7269 50.6204 65.18 58.9176H23.4359C23.0166 58.9176 22.6146 59.0762 22.3181 59.3584C22.0216 59.6406 21.8551 60.0234 21.8551 60.4226C21.8551 60.8217 22.0216 61.2045 22.3181 61.4867C22.6146 61.7689 23.0166 61.9275 23.4359 61.9275H64.4701C64.257 63.2049 64.15 64.4964 64.1502 65.7898C64.1502 67.747 64.3932 69.6501 64.8493 71.4744H23.4359C23.0166 71.4744 22.6146 71.6329 22.3181 71.9152C22.0216 72.1974 21.8551 72.5802 21.8551 72.9793C21.8551 73.3784 22.0216 73.7612 22.3181 74.0434C22.6146 74.3257 23.0166 74.4842 23.4359 74.4842H65.8226C68.7855 81.8988 75.4265 87.5871 83.6245 89.5278V110.416C83.6245 111.452 82.7369 112.297 81.6484 112.297H9.98022C8.89173 112.297 8.00415 111.452 8.00415 110.416V20.8718C8.00437 19.8358 8.89195 18.9906 9.98022 18.9906ZM21.8368 7.70312C20.7483 7.70312 19.8608 8.5481 19.8608 9.58434V15.6166H70.554C72.0379 15.6166 73.4079 16.1569 74.4572 17.1558L85.5518 27.7177C86.6011 28.7166 87.1686 30.0208 87.1686 31.4335V41.46C88.0482 41.3729 88.9411 41.3282 89.845 41.3282C91.7815 41.3282 93.6671 41.5335 95.4811 41.9201V22.741H84.217C81.7166 22.741 79.685 20.8069 79.685 18.4265V7.70312H21.8368ZM95.4813 89.6594V99.1283C95.4813 100.164 94.5937 101.01 93.5052 101.01H87.1688V90.1197C88.0484 90.2068 88.9413 90.2515 89.8453 90.2515C91.7411 90.2519 93.6312 90.0534 95.4813 89.6594ZM83.2293 7.86634V18.4265C83.2298 18.6758 83.3341 18.9147 83.5192 19.091C83.7044 19.2673 83.9554 19.3665 84.2172 19.367H95.3098C95.2098 19.1616 95.0718 18.975 94.9025 18.816L83.8081 8.25414C83.6411 8.09293 83.4451 7.96158 83.2293 7.86634ZM23.4359 49.3707H68.1927C68.4019 49.3731 68.6095 49.3359 68.8034 49.2613C68.9974 49.1867 69.1739 49.0763 69.3227 48.9363C69.4715 48.7963 69.5896 48.6296 69.6702 48.4459C69.7508 48.2621 69.7923 48.0649 69.7923 47.8658C69.7923 47.6667 69.7508 47.4695 69.6702 47.2857C69.5896 47.102 69.4715 46.9353 69.3227 46.7953C69.1739 46.6553 68.9974 46.5449 68.8034 46.4703C68.6095 46.3957 68.4019 46.3585 68.1927 46.3609H23.4359C23.0199 46.3656 22.6226 46.5262 22.3301 46.8079C22.0377 47.0896 21.8737 47.4697 21.8737 47.8658C21.8737 48.2619 22.0377 48.642 22.3301 48.9237C22.6226 49.2054 23.0199 49.366 23.4359 49.3707ZM23.4359 36.8138H55.5646C55.9839 36.8138 56.3859 36.6552 56.6824 36.373C56.9788 36.0908 57.1454 35.708 57.1454 35.3088C57.1454 34.9097 56.9788 34.5269 56.6824 34.2447C56.3859 33.9625 55.9839 33.8039 55.5646 33.8039H23.4359C23.0166 33.8039 22.6146 33.9625 22.3181 34.2447C22.0216 34.5269 21.8551 34.9097 21.8551 35.3088C21.8551 35.708 22.0216 36.0908 22.3181 36.373C22.6146 36.6552 23.0166 36.8138 23.4359 36.8138ZM23.4359 99.5979H68.1927C68.612 99.5979 69.0141 99.4394 69.3106 99.1571C69.6071 98.8749 69.7736 98.4921 69.7736 98.0929C69.7736 97.6937 69.6071 97.3109 69.3106 97.0287C69.0141 96.7464 68.612 96.5879 68.1927 96.5879H23.4359C22.5629 96.5879 21.8552 97.2616 21.8552 98.0929C21.8552 98.9242 22.5629 99.5979 23.4359 99.5979ZM23.4359 87.0412H68.1927C68.612 87.0412 69.0141 86.8826 69.3106 86.6004C69.6071 86.3181 69.7736 85.9353 69.7736 85.5362C69.7736 85.137 69.6071 84.7542 69.3106 84.4719C69.0141 84.1897 68.612 84.0311 68.1927 84.0311H23.4359C23.0166 84.0311 22.6145 84.1897 22.318 84.4719C22.0215 84.7542 21.855 85.137 21.855 85.5362C21.855 85.9353 22.0215 86.3181 22.318 86.6004C22.6145 86.8826 23.0166 87.0412 23.4359 87.0412ZM71.3727 19.1538V29.714C71.3732 29.9633 71.4775 30.2022 71.6626 30.3785C71.8478 30.5548 72.0988 30.654 72.3606 30.6545H83.4532C83.3532 30.4491 83.2152 30.2625 83.0459 30.1035L71.9515 19.5416C71.7845 19.3804 71.5885 19.249 71.3727 19.1538ZM89.845 44.7024C77.6114 44.7024 67.6943 54.1434 67.6943 65.7898C67.6943 77.4362 77.6114 86.8773 89.845 86.8773C102.079 86.8773 111.996 77.4362 111.996 65.7898C111.996 54.1434 102.079 44.7024 89.845 44.7024ZM76.7876 66.7837L84.8447 74.4541C85.8322 75.3941 87.4335 75.3941 88.421 74.4541C93.2726 69.8353 98.0805 65.157 102.909 60.5142C103.891 59.5741 103.887 58.0539 102.9 57.1189C101.912 56.1839 100.315 56.1881 99.3331 57.1282L86.629 69.3431L80.3641 63.3789C79.3766 62.4388 77.7753 62.4388 76.7876 63.3789C75.8002 64.3192 75.8002 65.8436 76.7876 66.7837Z" />
    </mask>
    <path fill-rule="evenodd" clip-rule="evenodd"
        d="M9.98022 18.9906H67.8286V29.714C67.8286 32.0942 69.8602 34.0285 72.3606 34.0285H83.6247V42.0519C74.7671 44.1488 67.7269 50.6204 65.18 58.9176H23.4359C23.0166 58.9176 22.6146 59.0762 22.3181 59.3584C22.0216 59.6406 21.8551 60.0234 21.8551 60.4226C21.8551 60.8217 22.0216 61.2045 22.3181 61.4867C22.6146 61.7689 23.0166 61.9275 23.4359 61.9275H64.4701C64.257 63.2049 64.15 64.4964 64.1502 65.7898C64.1502 67.747 64.3932 69.6501 64.8493 71.4744H23.4359C23.0166 71.4744 22.6146 71.6329 22.3181 71.9152C22.0216 72.1974 21.8551 72.5802 21.8551 72.9793C21.8551 73.3784 22.0216 73.7612 22.3181 74.0434C22.6146 74.3257 23.0166 74.4842 23.4359 74.4842H65.8226C68.7855 81.8988 75.4265 87.5871 83.6245 89.5278V110.416C83.6245 111.452 82.7369 112.297 81.6484 112.297H9.98022C8.89173 112.297 8.00415 111.452 8.00415 110.416V20.8718C8.00437 19.8358 8.89195 18.9906 9.98022 18.9906ZM21.8368 7.70312C20.7483 7.70312 19.8608 8.5481 19.8608 9.58434V15.6166H70.554C72.0379 15.6166 73.4079 16.1569 74.4572 17.1558L85.5518 27.7177C86.6011 28.7166 87.1686 30.0208 87.1686 31.4335V41.46C88.0482 41.3729 88.9411 41.3282 89.845 41.3282C91.7815 41.3282 93.6671 41.5335 95.4811 41.9201V22.741H84.217C81.7166 22.741 79.685 20.8069 79.685 18.4265V7.70312H21.8368ZM95.4813 89.6594V99.1283C95.4813 100.164 94.5937 101.01 93.5052 101.01H87.1688V90.1197C88.0484 90.2068 88.9413 90.2515 89.8453 90.2515C91.7411 90.2519 93.6312 90.0534 95.4813 89.6594ZM83.2293 7.86634V18.4265C83.2298 18.6758 83.3341 18.9147 83.5192 19.091C83.7044 19.2673 83.9554 19.3665 84.2172 19.367H95.3098C95.2098 19.1616 95.0718 18.975 94.9025 18.816L83.8081 8.25414C83.6411 8.09293 83.4451 7.96158 83.2293 7.86634ZM23.4359 49.3707H68.1927C68.4019 49.3731 68.6095 49.3359 68.8034 49.2613C68.9974 49.1867 69.1739 49.0763 69.3227 48.9363C69.4715 48.7963 69.5896 48.6296 69.6702 48.4459C69.7508 48.2621 69.7923 48.0649 69.7923 47.8658C69.7923 47.6667 69.7508 47.4695 69.6702 47.2857C69.5896 47.102 69.4715 46.9353 69.3227 46.7953C69.1739 46.6553 68.9974 46.5449 68.8034 46.4703C68.6095 46.3957 68.4019 46.3585 68.1927 46.3609H23.4359C23.0199 46.3656 22.6226 46.5262 22.3301 46.8079C22.0377 47.0896 21.8737 47.4697 21.8737 47.8658C21.8737 48.2619 22.0377 48.642 22.3301 48.9237C22.6226 49.2054 23.0199 49.366 23.4359 49.3707ZM23.4359 36.8138H55.5646C55.9839 36.8138 56.3859 36.6552 56.6824 36.373C56.9788 36.0908 57.1454 35.708 57.1454 35.3088C57.1454 34.9097 56.9788 34.5269 56.6824 34.2447C56.3859 33.9625 55.9839 33.8039 55.5646 33.8039H23.4359C23.0166 33.8039 22.6146 33.9625 22.3181 34.2447C22.0216 34.5269 21.8551 34.9097 21.8551 35.3088C21.8551 35.708 22.0216 36.0908 22.3181 36.373C22.6146 36.6552 23.0166 36.8138 23.4359 36.8138ZM23.4359 99.5979H68.1927C68.612 99.5979 69.0141 99.4394 69.3106 99.1571C69.6071 98.8749 69.7736 98.4921 69.7736 98.0929C69.7736 97.6937 69.6071 97.3109 69.3106 97.0287C69.0141 96.7464 68.612 96.5879 68.1927 96.5879H23.4359C22.5629 96.5879 21.8552 97.2616 21.8552 98.0929C21.8552 98.9242 22.5629 99.5979 23.4359 99.5979ZM23.4359 87.0412H68.1927C68.612 87.0412 69.0141 86.8826 69.3106 86.6004C69.6071 86.3181 69.7736 85.9353 69.7736 85.5362C69.7736 85.137 69.6071 84.7542 69.3106 84.4719C69.0141 84.1897 68.612 84.0311 68.1927 84.0311H23.4359C23.0166 84.0311 22.6145 84.1897 22.318 84.4719C22.0215 84.7542 21.855 85.137 21.855 85.5362C21.855 85.9353 22.0215 86.3181 22.318 86.6004C22.6145 86.8826 23.0166 87.0412 23.4359 87.0412ZM71.3727 19.1538V29.714C71.3732 29.9633 71.4775 30.2022 71.6626 30.3785C71.8478 30.5548 72.0988 30.654 72.3606 30.6545H83.4532C83.3532 30.4491 83.2152 30.2625 83.0459 30.1035L71.9515 19.5416C71.7845 19.3804 71.5885 19.249 71.3727 19.1538ZM89.845 44.7024C77.6114 44.7024 67.6943 54.1434 67.6943 65.7898C67.6943 77.4362 77.6114 86.8773 89.845 86.8773C102.079 86.8773 111.996 77.4362 111.996 65.7898C111.996 54.1434 102.079 44.7024 89.845 44.7024ZM76.7876 66.7837L84.8447 74.4541C85.8322 75.3941 87.4335 75.3941 88.421 74.4541C93.2726 69.8353 98.0805 65.157 102.909 60.5142C103.891 59.5741 103.887 58.0539 102.9 57.1189C101.912 56.1839 100.315 56.1881 99.3331 57.1282L86.629 69.3431L80.3641 63.3789C79.3766 62.4388 77.7753 62.4388 76.7876 63.3789C75.8002 64.3192 75.8002 65.8436 76.7876 66.7837Z"
        stroke="#C2C2C2" stroke-width="2" mask="url(#path-1-inside-1_2092_2153)" />
</svg>