<svg width="120" height="120" viewBox="0 0 120 120" fill="none" xmlns="http://www.w3.org/2000/svg">
    <path
        d="M72.8611 104.474V104.974H73.3611H81.0475C83.2937 104.974 85.0552 106.685 85.0552 108.737C85.0552 110.79 83.2924 112.5 81.0655 112.5H38.9521C37.8859 112.5 36.8682 112.098 36.1217 111.389C35.3761 110.681 34.9624 109.726 34.9624 108.737C34.9624 107.747 35.3761 106.793 36.1217 106.085C36.8682 105.376 37.8859 104.974 38.9521 104.974H46.6385H47.1385V104.474V99.8578H72.8611V104.474ZM57.3448 55.5395L48.5393 50.7004V41.0969L57.3448 45.9208V55.5395Z"
        stroke="#C2C2C2" />
    <path
        d="M100.009 20.739V13.2126H108.489C112.206 13.2126 115.172 16.0653 115.172 19.5338V89.1261C115.172 92.5945 112.206 95.4472 108.489 95.4472H11.5112C7.7937 95.4472 4.82764 92.5945 4.82764 89.1261V19.5338C4.82764 16.0653 7.7937 13.2126 11.5112 13.2126H76.2375V20.739H15.1029C13.8637 20.739 12.807 21.7062 12.807 22.9443V82.305C12.807 83.5431 13.8637 84.5103 15.1029 84.5103H104.897C106.136 84.5103 107.193 83.5431 107.193 82.305V22.9443C107.193 21.7062 106.136 20.739 104.897 20.739H100.009ZM57.704 89.1261C57.704 90.3642 58.7607 91.3314 59.9999 91.3314C61.2391 91.3314 62.2958 90.3642 62.2958 89.1261C62.2958 87.8678 61.2357 86.9208 59.9999 86.9208C58.7641 86.9208 57.704 87.8678 57.704 89.1261Z"
        stroke="#C2C2C2" />
    <path d="M70.7425 50.7004L61.937 55.5395V45.9208L70.7425 41.0969V50.7004Z" stroke="#C2C2C2" />
    <path
        d="M45.1066 35.3809L45.1065 35.3808L45.0991 35.385C44.421 35.7714 43.9487 36.4911 43.9487 37.3031V51.9855C43.9487 52.7975 44.421 53.5171 45.0991 53.9035L45.0991 53.9036L45.1061 53.9074L58.5034 61.2572L58.5162 61.2642L58.5294 61.2705C58.8653 61.43 59.2443 61.5405 59.6418 61.5405C60.0538 61.5405 60.436 61.4318 60.7657 61.2649L60.773 61.2612L60.7803 61.2572L74.1775 53.9074L74.1784 53.9069C74.8871 53.5162 75.335 52.79 75.335 51.9855V37.3031C75.335 36.4985 74.8871 35.7723 74.1784 35.3816L74.1771 35.3809L60.7812 28.0489C60.7809 28.0488 60.7807 28.0486 60.7804 28.0485C60.0738 27.6593 59.2099 27.6593 58.5032 28.0485C58.503 28.0486 58.5027 28.0488 58.5025 28.0489L45.1066 35.3809ZM62.5393 76.3394L62.5427 76.3318L62.5459 76.3241C62.8915 75.4927 62.7109 74.5346 62.0305 73.9081L23.9098 37.7106C23.5903 37.398 23.1818 37.1874 22.7394 37.1026C22.2971 37.0179 21.8379 37.062 21.4212 37.2303C20.5781 37.5568 19.9917 38.364 19.9917 39.2641V75.4671C19.9917 76.7255 21.0517 77.6724 22.2875 77.6724H60.4141C61.3362 77.6724 62.1666 77.1577 62.5393 76.3394ZM17.3999 25.1499H76.2386V80.1H17.3999V25.1499ZM100.01 25.1499H102.602V80.1H100.01V25.1499Z"
        stroke="#C2C2C2" />
    <path
        d="M30.426 56.8237L29.5817 56.022V57.1863V68.083V68.583H30.0817H41.5574H42.8101L41.9017 67.7204L30.426 56.8237ZM50.8771 37.3028L59.6419 32.5013L68.4067 37.3028L59.6419 42.1043L50.8771 37.3028ZM80.8304 15.555V7.5H95.4187V80.1168H80.8304V73.767H84.9279C86.1671 73.767 87.2238 72.7999 87.2238 71.5618C87.2238 70.3237 86.1671 69.3565 84.9279 69.3565H80.8304V63.0068H84.9279C86.1671 63.0068 87.2238 62.0396 87.2238 60.8015C87.2238 59.5634 86.1671 58.5962 84.9279 58.5962H80.8304V52.2465H84.9279C86.1671 52.2465 87.2238 51.2793 87.2238 50.0412C87.2238 48.8031 86.1671 47.8359 84.9279 47.8359H80.8304V41.4862H84.9279C86.1671 41.4862 87.2238 40.519 87.2238 39.2809C87.2238 38.0428 86.1671 37.0756 84.9279 37.0756H80.8304V30.7259H84.9279C86.1671 30.7259 87.2238 29.7587 87.2238 28.5206C87.2238 27.2825 86.1671 26.3153 84.9279 26.3153H80.8304V19.9656H84.9279C86.1671 19.9656 87.2238 18.9984 87.2238 17.7603C87.2238 16.5222 86.1671 15.555 84.9279 15.555H80.8304ZM54.8329 73.2616H24.5835V44.5544L54.8329 73.2616Z"
        stroke="#C2C2C2" />
</svg>