<svg width="120" height="120" viewBox="0 0 120 120" fill="none" xmlns="http://www.w3.org/2000/svg">
    <path
        d="M10.4998 107.158V110.118C10.4983 110.368 10.5487 110.616 10.6482 110.847C10.7477 111.079 10.8942 111.289 11.0794 111.466C11.2646 111.644 11.4848 111.784 11.7273 111.88C11.9698 111.976 12.2299 112.026 12.4925 112.026H16.0112M10.4998 107.158L10.9998 107.161C10.9998 107.161 10.9998 107.161 10.9998 107.16M10.4998 107.158C10.5028 106.656 10.7137 106.175 11.0868 105.82C11.4598 105.465 11.965 105.264 12.4925 105.261M10.4998 107.158H10.9998V107.16M10.9998 107.16V110.118V110.121C10.9987 110.302 11.0351 110.481 11.1076 110.65C11.1801 110.818 11.2876 110.973 11.4252 111.105C11.5629 111.237 11.7279 111.343 11.9114 111.416C12.0949 111.488 12.2925 111.526 12.4925 111.526H15.535M10.9998 107.16C11.0023 106.798 11.1544 106.446 11.4315 106.182C11.7095 105.918 12.0908 105.764 12.4939 105.761H12.4925V105.261M15.535 111.526L15.5118 112.002L16.0112 112.026M15.535 111.526H16.0112V112.026M15.535 111.526L15.8164 105.761M16.0112 112.026L16.317 105.761H15.8164M15.8164 105.761L12.4952 105.761L12.4925 105.261M15.8164 105.761L15.8408 105.261H12.4925M84.0392 41.8981V41.9083L84.0396 41.9184C84.0524 42.2345 84.1696 42.5357 84.3703 42.7796C84.5665 43.0182 84.8322 43.1896 85.1287 43.2749C86.0153 43.5869 86.793 44.1216 87.3802 44.8188C87.9702 45.5195 88.3458 46.3579 88.4692 47.2428C88.5926 48.1275 88.4598 49.0281 88.0837 49.848C87.7075 50.6681 87.1013 51.378 86.3276 51.8986C85.5538 52.4194 84.6429 52.7301 83.6934 52.7948C82.7438 52.8596 81.7947 52.6758 80.9492 52.2647C80.1039 51.8537 79.3961 51.232 78.8999 50.4698C78.4045 49.7089 78.1382 48.8359 78.1272 47.9449C78.1278 47.7989 78.1888 47.6538 78.3054 47.5428C78.4235 47.4303 78.5888 47.3631 78.7659 47.3631C78.943 47.3631 79.1082 47.4303 79.2263 47.5428C79.3436 47.6544 79.4046 47.8004 79.4046 47.9472C79.4028 48.5222 79.539 49.0892 79.8015 49.6045C80.0643 50.1202 80.4462 50.5697 80.9162 50.9199C81.3861 51.2701 81.9321 51.5123 82.5122 51.6296C83.0907 51.7465 83.6893 51.7364 84.2632 51.6001C85.0824 51.4208 85.8228 50.9931 86.3716 50.376C86.9218 49.7573 87.2493 48.9818 87.3001 48.1652C87.3508 47.3484 87.1216 46.5403 86.6505 45.8625C86.1799 45.1852 85.4943 44.6757 84.7001 44.4059L84.7001 44.4057L84.6887 44.4022C84.1244 44.2253 83.637 43.8853 83.2928 43.4348C82.9492 42.985 82.7649 42.4471 82.7617 41.897C82.7617 41.8965 82.7617 41.8961 82.7617 41.8956L82.7617 34.0509H84.0392V41.8981ZM100.672 25.1537L100.677 25.1663L100.683 25.1786C100.728 25.2678 100.747 25.3649 100.74 25.4609C100.733 25.557 100.7 25.6516 100.641 25.7354C100.583 25.8194 100.5 25.8902 100.4 25.9385C100.299 25.9869 100.186 26.0102 100.071 26.005L100.06 26.0045H100.049H49.263C49.2892 25.9219 49.3128 25.8362 49.3341 25.7459C49.4205 25.3782 49.4614 24.9544 49.481 24.3833C49.5041 23.7103 49.4983 22.7848 49.4898 21.4359C49.4848 20.6348 49.4788 19.6844 49.4774 18.5488H96.233C96.7003 18.5505 97.1548 18.6834 97.5394 18.9286C97.924 19.1738 98.2202 19.5191 98.3947 19.9184L100.672 25.1537ZM23.2352 97.983C23.2353 97.9837 23.2355 97.9844 23.2357 97.9852C23.2001 99.4364 23.1262 102.436 22.9835 108.229L22.9022 111.526H18.8601L20.267 83.7441H23.5724C23.3818 91.6322 23.2937 95.3186 23.2569 96.8931C23.2475 97.2951 23.2415 97.5597 23.2379 97.7215L23.2343 97.8923L23.2337 97.9313L23.2337 97.9317C23.2337 97.9342 23.2336 97.9438 23.2338 97.9535C23.2339 97.9582 23.2345 97.9729 23.2352 97.983ZM48.9291 111.526H44.9047C44.9026 111.456 44.9003 111.377 44.8978 111.288C44.8428 109.374 44.6689 102.983 44.1945 83.7441H47.5112L48.9291 111.526ZM18.4408 25.7422C18.4622 25.8338 18.4862 25.9207 18.5129 26.0045H15.8963V18.5488H18.3121C18.3103 19.7972 18.3022 20.8216 18.2955 21.6695C18.2859 22.8938 18.2791 23.7502 18.2984 24.3815C18.3158 24.9508 18.3548 25.374 18.4408 25.7422ZM52.2537 111.515L51.9626 105.751L55.2828 105.751C55.2833 105.751 55.2837 105.751 55.2841 105.751C55.6888 105.753 56.0713 105.908 56.3495 106.174C56.6272 106.44 56.7783 106.795 56.7783 107.158V110.118C56.7783 110.48 56.6273 110.833 56.3499 111.097C56.0716 111.362 55.6892 111.515 55.2855 111.515H52.2537ZM39.5753 30.2405L28.0137 38.3909L28.2392 29.216H39.5425L39.5753 30.2405ZM39.6743 34.1629L40.0728 51.0109L27.9107 42.4495L39.6743 34.1629ZM40.1825 55.1603L27.3762 64.181L27.8181 46.3467L40.1805 55.0503L40.1825 55.1603ZM40.2786 59.0632L40.7437 78.0143L27.2756 68.5366L27.2799 68.2207L40.2786 59.0632ZM40.8441 82.3691L26.6927 92.3241L27.1806 72.44L40.8398 82.0535L40.8441 82.3691ZM40.939 86.273L41.4612 107.63L26.582 97.1458L26.5957 96.3745L40.939 86.273ZM26.2256 111.526L26.4857 101.059L41.3526 111.526H26.2256Z"
        stroke="#C2C2C2" />
    <path
        d="M23.0929 14.5486H44.6829C45.512 14.5486 46.1415 15.1824 46.1415 15.9132V24.6398C46.1415 25.3706 45.512 26.0044 44.6829 26.0044H23.0929C22.2639 26.0044 21.6343 25.3706 21.6343 24.6398V15.9132C21.6343 15.1824 22.2639 14.5486 23.0929 14.5486Z"
        stroke="#C2C2C2" />
    <path
        d="M39.3903 9.36556V9.36558V11.3264H28.3882V9.36558C28.3882 9.13258 28.4852 8.90384 28.6665 8.7312C28.8487 8.55778 29.1008 8.4563 29.3685 8.4563H38.4193C38.685 8.45866 38.9344 8.56088 39.1146 8.73369C39.2942 8.90606 39.3903 9.13372 39.3903 9.36556Z"
        stroke="#C2C2C2" />
    <path
        d="M6.71916 15.6113H11.7181C12.2264 15.6113 12.596 15.9976 12.596 16.423V28.1417C12.596 28.5671 12.2264 28.9534 11.7181 28.9534H6.71916C6.21087 28.9534 5.84131 28.5671 5.84131 28.1417V16.423C5.84131 15.9976 6.21087 15.6113 6.71916 15.6113Z"
        stroke="#C2C2C2" />
    <mask id="path-5-inside-1_2092_2153" fill="white">
        <path
            d="M71.6266 92.7406V112.026H114.659V92.7406H71.6266ZM78.6753 106.237C78.6753 106.525 78.5553 106.8 78.3418 107.004C78.1282 107.207 77.8386 107.321 77.5366 107.321C77.2346 107.321 76.9449 107.207 76.7314 107.004C76.5178 106.8 76.3978 106.525 76.3978 106.237V98.5295C76.3978 98.2419 76.5178 97.9662 76.7314 97.7629C76.9449 97.5596 77.2346 97.4454 77.5366 97.4454C77.8386 97.4454 78.1282 97.5596 78.3418 97.7629C78.5553 97.9662 78.6753 98.2419 78.6753 98.5295V106.237ZM84.9382 106.237C84.9382 106.532 84.8152 106.814 84.5964 107.023C84.3775 107.231 84.0806 107.348 83.771 107.348C83.4615 107.348 83.1646 107.231 82.9457 107.023C82.7268 106.814 82.6038 106.532 82.6038 106.237V98.5295C82.6038 98.2348 82.7268 97.9521 82.9457 97.7437C83.1646 97.5354 83.4615 97.4183 83.771 97.4183C84.0806 97.4183 84.3775 97.5354 84.5964 97.7437C84.8152 97.9521 84.9382 98.2348 84.9382 98.5295V106.237ZM91.1784 106.237C91.1784 106.525 91.0584 106.8 90.8449 107.004C90.6313 107.207 90.3417 107.321 90.0397 107.321C89.7377 107.321 89.448 107.207 89.2345 107.004C89.0209 106.8 88.901 106.525 88.901 106.237V98.5295C88.901 98.2419 89.0209 97.9662 89.2345 97.7629C89.448 97.5596 89.7377 97.4454 90.0397 97.4454C90.3417 97.4454 90.6313 97.5596 90.8449 97.7629C91.0584 97.9662 91.1784 98.2419 91.1784 98.5295V106.237ZM97.4299 106.237C97.4299 106.525 97.31 106.8 97.0964 107.004C96.8829 107.207 96.5932 107.321 96.2912 107.321C95.9892 107.321 95.6996 107.207 95.486 107.004C95.2725 106.8 95.1525 106.525 95.1525 106.237V98.5295C95.1525 98.2419 95.2725 97.9662 95.486 97.7629C95.6996 97.5596 95.9892 97.4454 96.2912 97.4454C96.5932 97.4454 96.8829 97.5596 97.0964 97.7629C97.31 97.9662 97.4299 98.2419 97.4299 98.5295V106.237ZM103.682 106.237C103.682 106.525 103.562 106.8 103.348 107.004C103.134 107.207 102.845 107.321 102.543 107.321C102.241 107.321 101.951 107.207 101.738 107.004C101.524 106.8 101.404 106.525 101.404 106.237V98.5295C101.404 98.2419 101.524 97.9662 101.738 97.7629C101.951 97.5596 102.241 97.4454 102.543 97.4454C102.845 97.4454 103.134 97.5596 103.348 97.7629C103.562 97.9662 103.682 98.2419 103.682 98.5295V106.237ZM109.933 106.237C109.933 106.525 109.813 106.8 109.6 107.004C109.386 107.207 109.096 107.321 108.794 107.321C108.492 107.321 108.203 107.207 107.989 107.004C107.776 106.8 107.656 106.525 107.656 106.237V98.5295C107.656 98.2419 107.776 97.9662 107.989 97.7629C108.203 97.5596 108.492 97.4454 108.794 97.4454C109.096 97.4454 109.386 97.5596 109.6 97.7629C109.813 97.9662 109.933 98.2419 109.933 98.5295V106.237ZM109.421 73.466H66.3999V92.7406H69.3036V90.5725H109.421V73.466ZM73.4486 86.9517C73.4486 87.2464 73.3256 87.529 73.1067 87.7374C72.8878 87.9458 72.5909 88.0629 72.2814 88.0629C71.9718 88.0629 71.6749 87.9458 71.4561 87.7374C71.2372 87.529 71.1142 87.2464 71.1142 86.9517V79.2549C71.1142 78.9602 71.2372 78.6776 71.4561 78.4692C71.6749 78.2608 71.9718 78.1437 72.2814 78.1437C72.5909 78.1437 72.8878 78.2608 73.1067 78.4692C73.3256 78.6776 73.4486 78.9602 73.4486 79.2549V86.9517ZM79.7001 86.9517C79.7001 87.2392 79.5802 87.5149 79.3666 87.7182C79.1531 87.9215 78.8634 88.0358 78.5614 88.0358C78.2594 88.0358 77.9698 87.9215 77.7562 87.7182C77.5427 87.5149 77.4227 87.2392 77.4227 86.9517V79.2549C77.4227 78.9674 77.5427 78.6916 77.7562 78.4883C77.9698 78.285 78.2594 78.1708 78.5614 78.1708C78.8634 78.1708 79.1531 78.285 79.3666 78.4883C79.5802 78.6916 79.7001 78.9674 79.7001 79.2549V86.9517ZM85.9403 86.9517C85.9403 87.2392 85.8203 87.5149 85.6068 87.7182C85.3932 87.9215 85.1036 88.0358 84.8016 88.0358C84.4996 88.0358 84.2099 87.9215 83.9964 87.7182C83.7828 87.5149 83.6629 87.2392 83.6629 86.9517V79.2549C83.6629 78.9674 83.7828 78.6916 83.9964 78.4883C84.2099 78.285 84.4996 78.1708 84.8016 78.1708C85.1036 78.1708 85.3932 78.285 85.6068 78.4883C85.8203 78.6916 85.9403 78.9674 85.9403 79.2549V86.9517ZM92.2032 86.9517C92.2032 87.2392 92.0833 87.5149 91.8697 87.7182C91.6562 87.9215 91.3665 88.0358 91.0645 88.0358C90.7625 88.0358 90.4729 87.9215 90.2593 87.7182C90.0458 87.5149 89.9258 87.2392 89.9258 86.9517V79.2549C89.9258 78.9674 90.0458 78.6916 90.2593 78.4883C90.4729 78.285 90.7625 78.1708 91.0645 78.1708C91.3665 78.1708 91.6562 78.285 91.8697 78.4883C92.0833 78.6916 92.2032 78.9674 92.2032 79.2549V86.9517ZM98.4434 86.9517C98.4434 87.2392 98.3234 87.5149 98.1099 87.7182C97.8963 87.9215 97.6067 88.0358 97.3047 88.0358C97.0027 88.0358 96.713 87.9215 96.4995 87.7182C96.2859 87.5149 96.166 87.2392 96.166 86.9517V79.2549C96.166 78.9674 96.2859 78.6916 96.4995 78.4883C96.713 78.285 97.0027 78.1708 97.3047 78.1708C97.6067 78.1708 97.8963 78.285 98.1099 78.4883C98.3234 78.6916 98.4434 78.9674 98.4434 79.2549V86.9517ZM104.706 86.9517C104.706 87.2392 104.586 87.5149 104.373 87.7182C104.159 87.9215 103.87 88.0358 103.568 88.0358C103.266 88.0358 102.976 87.9215 102.762 87.7182C102.549 87.5149 102.429 87.2392 102.429 86.9517V79.2549C102.429 78.9674 102.549 78.6916 102.762 78.4883C102.976 78.285 103.266 78.1708 103.568 78.1708C103.87 78.1708 104.159 78.285 104.373 78.4883C104.586 78.6916 104.706 78.9674 104.706 79.2549V86.9517ZM76.6597 28.7161L77.7985 30.3747C78.0082 30.674 78.2929 30.9189 78.6269 31.0873C78.9608 31.2558 79.3336 31.3424 79.7115 31.3395H86.8399C87.2178 31.3424 87.5906 31.2558 87.9245 31.0873C88.2585 30.9189 88.5432 30.674 88.7529 30.3747L89.8916 28.7161H76.6597Z" />
    </mask>
    <path
        d="M71.6266 92.7406V112.026H114.659V92.7406H71.6266ZM78.6753 106.237C78.6753 106.525 78.5553 106.8 78.3418 107.004C78.1282 107.207 77.8386 107.321 77.5366 107.321C77.2346 107.321 76.9449 107.207 76.7314 107.004C76.5178 106.8 76.3978 106.525 76.3978 106.237V98.5295C76.3978 98.2419 76.5178 97.9662 76.7314 97.7629C76.9449 97.5596 77.2346 97.4454 77.5366 97.4454C77.8386 97.4454 78.1282 97.5596 78.3418 97.7629C78.5553 97.9662 78.6753 98.2419 78.6753 98.5295V106.237ZM84.9382 106.237C84.9382 106.532 84.8152 106.814 84.5964 107.023C84.3775 107.231 84.0806 107.348 83.771 107.348C83.4615 107.348 83.1646 107.231 82.9457 107.023C82.7268 106.814 82.6038 106.532 82.6038 106.237V98.5295C82.6038 98.2348 82.7268 97.9521 82.9457 97.7437C83.1646 97.5354 83.4615 97.4183 83.771 97.4183C84.0806 97.4183 84.3775 97.5354 84.5964 97.7437C84.8152 97.9521 84.9382 98.2348 84.9382 98.5295V106.237ZM91.1784 106.237C91.1784 106.525 91.0584 106.8 90.8449 107.004C90.6313 107.207 90.3417 107.321 90.0397 107.321C89.7377 107.321 89.448 107.207 89.2345 107.004C89.0209 106.8 88.901 106.525 88.901 106.237V98.5295C88.901 98.2419 89.0209 97.9662 89.2345 97.7629C89.448 97.5596 89.7377 97.4454 90.0397 97.4454C90.3417 97.4454 90.6313 97.5596 90.8449 97.7629C91.0584 97.9662 91.1784 98.2419 91.1784 98.5295V106.237ZM97.4299 106.237C97.4299 106.525 97.31 106.8 97.0964 107.004C96.8829 107.207 96.5932 107.321 96.2912 107.321C95.9892 107.321 95.6996 107.207 95.486 107.004C95.2725 106.8 95.1525 106.525 95.1525 106.237V98.5295C95.1525 98.2419 95.2725 97.9662 95.486 97.7629C95.6996 97.5596 95.9892 97.4454 96.2912 97.4454C96.5932 97.4454 96.8829 97.5596 97.0964 97.7629C97.31 97.9662 97.4299 98.2419 97.4299 98.5295V106.237ZM103.682 106.237C103.682 106.525 103.562 106.8 103.348 107.004C103.134 107.207 102.845 107.321 102.543 107.321C102.241 107.321 101.951 107.207 101.738 107.004C101.524 106.8 101.404 106.525 101.404 106.237V98.5295C101.404 98.2419 101.524 97.9662 101.738 97.7629C101.951 97.5596 102.241 97.4454 102.543 97.4454C102.845 97.4454 103.134 97.5596 103.348 97.7629C103.562 97.9662 103.682 98.2419 103.682 98.5295V106.237ZM109.933 106.237C109.933 106.525 109.813 106.8 109.6 107.004C109.386 107.207 109.096 107.321 108.794 107.321C108.492 107.321 108.203 107.207 107.989 107.004C107.776 106.8 107.656 106.525 107.656 106.237V98.5295C107.656 98.2419 107.776 97.9662 107.989 97.7629C108.203 97.5596 108.492 97.4454 108.794 97.4454C109.096 97.4454 109.386 97.5596 109.6 97.7629C109.813 97.9662 109.933 98.2419 109.933 98.5295V106.237ZM109.421 73.466H66.3999V92.7406H69.3036V90.5725H109.421V73.466ZM73.4486 86.9517C73.4486 87.2464 73.3256 87.529 73.1067 87.7374C72.8878 87.9458 72.5909 88.0629 72.2814 88.0629C71.9718 88.0629 71.6749 87.9458 71.4561 87.7374C71.2372 87.529 71.1142 87.2464 71.1142 86.9517V79.2549C71.1142 78.9602 71.2372 78.6776 71.4561 78.4692C71.6749 78.2608 71.9718 78.1437 72.2814 78.1437C72.5909 78.1437 72.8878 78.2608 73.1067 78.4692C73.3256 78.6776 73.4486 78.9602 73.4486 79.2549V86.9517ZM79.7001 86.9517C79.7001 87.2392 79.5802 87.5149 79.3666 87.7182C79.1531 87.9215 78.8634 88.0358 78.5614 88.0358C78.2594 88.0358 77.9698 87.9215 77.7562 87.7182C77.5427 87.5149 77.4227 87.2392 77.4227 86.9517V79.2549C77.4227 78.9674 77.5427 78.6916 77.7562 78.4883C77.9698 78.285 78.2594 78.1708 78.5614 78.1708C78.8634 78.1708 79.1531 78.285 79.3666 78.4883C79.5802 78.6916 79.7001 78.9674 79.7001 79.2549V86.9517ZM85.9403 86.9517C85.9403 87.2392 85.8203 87.5149 85.6068 87.7182C85.3932 87.9215 85.1036 88.0358 84.8016 88.0358C84.4996 88.0358 84.2099 87.9215 83.9964 87.7182C83.7828 87.5149 83.6629 87.2392 83.6629 86.9517V79.2549C83.6629 78.9674 83.7828 78.6916 83.9964 78.4883C84.2099 78.285 84.4996 78.1708 84.8016 78.1708C85.1036 78.1708 85.3932 78.285 85.6068 78.4883C85.8203 78.6916 85.9403 78.9674 85.9403 79.2549V86.9517ZM92.2032 86.9517C92.2032 87.2392 92.0833 87.5149 91.8697 87.7182C91.6562 87.9215 91.3665 88.0358 91.0645 88.0358C90.7625 88.0358 90.4729 87.9215 90.2593 87.7182C90.0458 87.5149 89.9258 87.2392 89.9258 86.9517V79.2549C89.9258 78.9674 90.0458 78.6916 90.2593 78.4883C90.4729 78.285 90.7625 78.1708 91.0645 78.1708C91.3665 78.1708 91.6562 78.285 91.8697 78.4883C92.0833 78.6916 92.2032 78.9674 92.2032 79.2549V86.9517ZM98.4434 86.9517C98.4434 87.2392 98.3234 87.5149 98.1099 87.7182C97.8963 87.9215 97.6067 88.0358 97.3047 88.0358C97.0027 88.0358 96.713 87.9215 96.4995 87.7182C96.2859 87.5149 96.166 87.2392 96.166 86.9517V79.2549C96.166 78.9674 96.2859 78.6916 96.4995 78.4883C96.713 78.285 97.0027 78.1708 97.3047 78.1708C97.6067 78.1708 97.8963 78.285 98.1099 78.4883C98.3234 78.6916 98.4434 78.9674 98.4434 79.2549V86.9517ZM104.706 86.9517C104.706 87.2392 104.586 87.5149 104.373 87.7182C104.159 87.9215 103.87 88.0358 103.568 88.0358C103.266 88.0358 102.976 87.9215 102.762 87.7182C102.549 87.5149 102.429 87.2392 102.429 86.9517V79.2549C102.429 78.9674 102.549 78.6916 102.762 78.4883C102.976 78.285 103.266 78.1708 103.568 78.1708C103.87 78.1708 104.159 78.285 104.373 78.4883C104.586 78.6916 104.706 78.9674 104.706 79.2549V86.9517ZM76.6597 28.7161L77.7985 30.3747C78.0082 30.674 78.2929 30.9189 78.6269 31.0873C78.9608 31.2558 79.3336 31.3424 79.7115 31.3395H86.8399C87.2178 31.3424 87.5906 31.2558 87.9245 31.0873C88.2585 30.9189 88.5432 30.674 88.7529 30.3747L89.8916 28.7161H76.6597Z"
        stroke="#C2C2C2" stroke-width="2" mask="url(#path-5-inside-1_2092_2153)" />
</svg>