<svg width="120" height="120" viewBox="0 0 120 120" fill="none" xmlns="http://www.w3.org/2000/svg">
    <mask id="path-1-inside-1_2092_2153" fill="white">
        <path fill-rule="evenodd" clip-rule="evenodd"
            d="M64.1697 39.9289V54.8639C64.1697 54.9822 64.0685 55.0785 63.9443 55.0785H49.2158C46.8189 55.0785 45.1103 56.8995 45.1103 59.1281V75.4155C45.1103 75.5337 45.0091 75.63 44.8849 75.63H17.7536C17.6294 75.63 17.5282 75.5337 17.5282 75.4155V47.6516C17.5282 47.5464 17.6058 47.4585 17.7146 47.4402L63.9053 39.7176C63.9377 39.712 63.971 39.7133 64.0029 39.7214C64.0347 39.7294 64.0643 39.7441 64.0896 39.7642C64.1148 39.7844 64.1351 39.8096 64.1489 39.8381C64.1627 39.8666 64.1698 39.8976 64.1697 39.9289ZM11.8542 39.274C11.5924 39.3163 11.355 39.4458 11.1843 39.6394C11.0135 39.8329 10.9206 40.0779 10.9221 40.3306V44.2479C10.9214 44.4047 10.9569 44.5598 11.0262 44.7021C11.0955 44.8444 11.1968 44.9704 11.3229 45.0713C11.4491 45.1721 11.597 45.2453 11.7562 45.2856C11.9154 45.326 12.082 45.3325 12.2441 45.3047L69.844 35.6746C70.1057 35.6323 70.3431 35.5029 70.5139 35.3093C70.6846 35.1158 70.7775 34.8707 70.776 34.618V30.7008C70.7767 30.544 70.7412 30.3889 70.6719 30.2466C70.6027 30.1043 70.5014 29.9783 70.3752 29.8774C70.249 29.7766 70.1011 29.7034 69.9419 29.663C69.7827 29.6227 69.6162 29.6162 69.454 29.644L11.8542 39.274ZM7.03033 111.5H112.97C113.59 111.5 114.097 111.018 114.097 110.427V106.383C114.097 105.793 113.59 105.311 112.97 105.311H7.03033C6.73161 105.311 6.4453 105.424 6.23407 105.625C6.02285 105.827 5.90392 106.099 5.90332 106.383V110.427C5.90332 111.018 6.40957 111.5 7.03033 111.5ZM49.216 58.0825C48.5953 58.0825 48.2662 58.537 48.2662 59.1279V102.092C48.2662 102.21 48.3674 102.307 48.4916 102.307H110.185C110.309 102.307 110.411 102.21 110.411 102.092V59.1279C110.411 58.5374 109.727 58.0825 109.107 58.0825H49.216ZM94.1449 67.7312H101.036C101.657 67.7312 102.163 68.2132 102.163 68.8041V75.3646C102.163 75.9556 101.657 76.4375 101.036 76.4375H94.1449C93.8461 76.4369 93.5598 76.3237 93.3486 76.1226C93.1374 75.9215 93.0184 75.649 93.0178 75.3646V68.8041C93.0184 68.5198 93.1374 68.2472 93.3486 68.0461C93.5598 67.845 93.8461 67.7318 94.1449 67.7312ZM75.8924 67.7312H82.7837C83.4044 67.7312 83.9107 68.2132 83.9107 68.8041V75.3646C83.9107 75.9556 83.4044 76.4375 82.7837 76.4375H75.8924C75.5937 76.4369 75.3074 76.3237 75.0962 76.1226C74.8849 75.9215 74.766 75.649 74.7654 75.3646V68.8041C74.766 68.5198 74.8849 68.2472 75.0962 68.0461C75.3074 67.845 75.5937 67.7318 75.8924 67.7312ZM57.6402 67.7312C57.3415 67.7318 57.0552 67.845 56.844 68.0461C56.6327 68.2472 56.5138 68.5198 56.5132 68.8041V75.3646C56.5132 75.9556 57.0195 76.4375 57.6402 76.4375H64.5315C65.1522 76.4375 65.6585 75.9556 65.6585 75.3646V68.8041C65.6585 68.2132 65.1522 67.7312 64.5315 67.7312H57.6402ZM94.1449 86.521H101.036C101.657 86.521 102.163 87.003 102.163 87.5939V94.1544C102.163 94.7453 101.657 95.2273 101.036 95.2273H94.1449C93.8461 95.2267 93.5598 95.1135 93.3486 94.9124C93.1374 94.7113 93.0184 94.4388 93.0178 94.1544V87.5939C93.0184 87.3095 93.1374 87.037 93.3486 86.8359C93.5598 86.6348 93.8461 86.5216 94.1449 86.521ZM57.6402 86.521H64.5315C65.1522 86.521 65.6585 87.003 65.6585 87.5939V94.1544C65.6585 94.7453 65.1522 95.2273 64.5315 95.2273H57.6402C57.3415 95.2267 57.0552 95.1135 56.844 94.9124C56.6327 94.7113 56.5138 94.4388 56.5132 94.1544V87.5939C56.5132 87.003 57.0195 86.521 57.6402 86.521ZM75.8924 86.521H82.7837C83.4044 86.521 83.9107 87.003 83.9107 87.5939V94.1544C83.9107 94.7453 83.4044 95.2273 82.7837 95.2273H75.8924C75.5937 95.2267 75.3074 95.1135 75.0962 94.9124C74.8849 94.7113 74.766 94.4388 74.7654 94.1544V87.5939C74.766 87.3095 74.8849 87.037 75.0962 86.8359C75.3074 86.6348 75.5937 86.5216 75.8924 86.521ZM25.6281 63.5054C25.3294 63.506 25.043 63.6192 24.8318 63.8203C24.6206 64.0214 24.5017 64.294 24.5011 64.5784V71.1388C24.5011 71.7298 25.0073 72.2117 25.6281 72.2117H32.5193C33.1401 72.2117 33.6463 71.7298 33.6463 71.1388V64.5784C33.6463 63.9874 33.1401 63.5054 32.5193 63.5054H25.6281ZM25.6281 48.6024C25.3294 48.603 25.043 48.7162 24.8318 48.9173C24.6206 49.1184 24.5017 49.3909 24.5011 49.6753V56.2358C24.5011 56.8267 25.0073 57.3087 25.6281 57.3087H32.5193C33.1401 57.3087 33.6463 56.8267 33.6463 56.2358V49.6753C33.6463 49.0844 33.1401 48.6024 32.5193 48.6024H25.6281ZM10.1066 78.634L44.8851 78.6338C45.0093 78.6338 45.1105 78.7301 45.1105 78.8484V102.092C45.1105 102.21 45.0093 102.307 44.8851 102.307H42.4222C42.298 102.307 42.1968 102.21 42.1968 102.092V87.5937C42.1968 86.8836 41.8931 86.2397 41.4038 85.7736C41.153 85.5341 40.855 85.3441 40.527 85.2146C40.1989 85.085 39.8471 85.0185 39.4919 85.0187H18.6555C17.9096 85.0187 17.2332 85.3077 16.7436 85.7736C16.4921 86.0123 16.2925 86.296 16.1565 86.6084C16.0204 86.9207 15.9504 87.2556 15.9506 87.5937V102.092C15.9506 102.21 15.8494 102.307 15.7252 102.307H10.1066C9.98243 102.307 9.88123 102.21 9.88123 102.092V78.8486C9.88123 78.7303 9.98243 78.634 10.1066 78.634ZM38.8159 88.0231H30.877C30.7528 88.0231 30.6516 88.1194 30.6516 88.2377V102.092C30.6516 102.21 30.7528 102.307 30.877 102.307H38.8159C38.9401 102.307 39.0413 102.21 39.0413 102.092V88.2377C39.0411 88.1194 38.9399 88.0231 38.8159 88.0231ZM27.496 102.092V88.2375C27.496 88.1192 27.3948 88.0229 27.2706 88.0229H19.3315C19.2073 88.0229 19.1061 88.1192 19.1061 88.2375V102.092C19.1061 102.21 19.2073 102.307 19.3315 102.307H27.2706C27.3948 102.307 27.496 102.21 27.496 102.092ZM96.611 8.5H105.031C105.511 8.5 105.902 8.98281 105.902 9.57292V12.6009C105.902 12.7191 105.801 12.8155 105.677 12.8155H95.9652C95.841 12.8155 95.7398 12.7191 95.7398 12.6009V9.57292C95.7398 8.98195 96.1311 8.5 96.611 8.5ZM105.902 16.034V54.8637C105.902 54.982 105.801 55.0783 105.677 55.0783H95.9652C95.841 55.0783 95.7398 54.982 95.7398 54.8637V16.034C95.7398 15.9158 95.841 15.8194 95.9652 15.8194H105.677C105.801 15.8194 105.902 15.9158 105.902 16.034ZM77.4065 17.0833H85.8264C86.3063 17.0833 86.6975 17.5657 86.6975 18.1563V21.1842C86.6975 21.3025 86.5963 21.3988 86.4721 21.3988H76.7604C76.6363 21.3988 76.535 21.3025 76.535 21.1842V18.1563C76.5353 17.5653 76.9266 17.0833 77.4065 17.0833ZM86.6978 24.6176V54.8639C86.6978 54.9822 86.5966 55.0785 86.4724 55.0785H76.7607C76.6365 55.0785 76.5353 54.9822 76.5353 54.8639V24.6176C76.5353 24.4993 76.6365 24.403 76.7607 24.403H86.4724C86.5966 24.403 86.6978 24.4993 86.6978 24.6176Z" />
    </mask>
    <path fill-rule="evenodd" clip-rule="evenodd"
        d="M64.1697 39.9289V54.8639C64.1697 54.9822 64.0685 55.0785 63.9443 55.0785H49.2158C46.8189 55.0785 45.1103 56.8995 45.1103 59.1281V75.4155C45.1103 75.5337 45.0091 75.63 44.8849 75.63H17.7536C17.6294 75.63 17.5282 75.5337 17.5282 75.4155V47.6516C17.5282 47.5464 17.6058 47.4585 17.7146 47.4402L63.9053 39.7176C63.9377 39.712 63.971 39.7133 64.0029 39.7214C64.0347 39.7294 64.0643 39.7441 64.0896 39.7642C64.1148 39.7844 64.1351 39.8096 64.1489 39.8381C64.1627 39.8666 64.1698 39.8976 64.1697 39.9289ZM11.8542 39.274C11.5924 39.3163 11.355 39.4458 11.1843 39.6394C11.0135 39.8329 10.9206 40.0779 10.9221 40.3306V44.2479C10.9214 44.4047 10.9569 44.5598 11.0262 44.7021C11.0955 44.8444 11.1968 44.9704 11.3229 45.0713C11.4491 45.1721 11.597 45.2453 11.7562 45.2856C11.9154 45.326 12.082 45.3325 12.2441 45.3047L69.844 35.6746C70.1057 35.6323 70.3431 35.5029 70.5139 35.3093C70.6846 35.1158 70.7775 34.8707 70.776 34.618V30.7008C70.7767 30.544 70.7412 30.3889 70.6719 30.2466C70.6027 30.1043 70.5014 29.9783 70.3752 29.8774C70.249 29.7766 70.1011 29.7034 69.9419 29.663C69.7827 29.6227 69.6162 29.6162 69.454 29.644L11.8542 39.274ZM7.03033 111.5H112.97C113.59 111.5 114.097 111.018 114.097 110.427V106.383C114.097 105.793 113.59 105.311 112.97 105.311H7.03033C6.73161 105.311 6.4453 105.424 6.23407 105.625C6.02285 105.827 5.90392 106.099 5.90332 106.383V110.427C5.90332 111.018 6.40957 111.5 7.03033 111.5ZM49.216 58.0825C48.5953 58.0825 48.2662 58.537 48.2662 59.1279V102.092C48.2662 102.21 48.3674 102.307 48.4916 102.307H110.185C110.309 102.307 110.411 102.21 110.411 102.092V59.1279C110.411 58.5374 109.727 58.0825 109.107 58.0825H49.216ZM94.1449 67.7312H101.036C101.657 67.7312 102.163 68.2132 102.163 68.8041V75.3646C102.163 75.9556 101.657 76.4375 101.036 76.4375H94.1449C93.8461 76.4369 93.5598 76.3237 93.3486 76.1226C93.1374 75.9215 93.0184 75.649 93.0178 75.3646V68.8041C93.0184 68.5198 93.1374 68.2472 93.3486 68.0461C93.5598 67.845 93.8461 67.7318 94.1449 67.7312ZM75.8924 67.7312H82.7837C83.4044 67.7312 83.9107 68.2132 83.9107 68.8041V75.3646C83.9107 75.9556 83.4044 76.4375 82.7837 76.4375H75.8924C75.5937 76.4369 75.3074 76.3237 75.0962 76.1226C74.8849 75.9215 74.766 75.649 74.7654 75.3646V68.8041C74.766 68.5198 74.8849 68.2472 75.0962 68.0461C75.3074 67.845 75.5937 67.7318 75.8924 67.7312ZM57.6402 67.7312C57.3415 67.7318 57.0552 67.845 56.844 68.0461C56.6327 68.2472 56.5138 68.5198 56.5132 68.8041V75.3646C56.5132 75.9556 57.0195 76.4375 57.6402 76.4375H64.5315C65.1522 76.4375 65.6585 75.9556 65.6585 75.3646V68.8041C65.6585 68.2132 65.1522 67.7312 64.5315 67.7312H57.6402ZM94.1449 86.521H101.036C101.657 86.521 102.163 87.003 102.163 87.5939V94.1544C102.163 94.7453 101.657 95.2273 101.036 95.2273H94.1449C93.8461 95.2267 93.5598 95.1135 93.3486 94.9124C93.1374 94.7113 93.0184 94.4388 93.0178 94.1544V87.5939C93.0184 87.3095 93.1374 87.037 93.3486 86.8359C93.5598 86.6348 93.8461 86.5216 94.1449 86.521ZM57.6402 86.521H64.5315C65.1522 86.521 65.6585 87.003 65.6585 87.5939V94.1544C65.6585 94.7453 65.1522 95.2273 64.5315 95.2273H57.6402C57.3415 95.2267 57.0552 95.1135 56.844 94.9124C56.6327 94.7113 56.5138 94.4388 56.5132 94.1544V87.5939C56.5132 87.003 57.0195 86.521 57.6402 86.521ZM75.8924 86.521H82.7837C83.4044 86.521 83.9107 87.003 83.9107 87.5939V94.1544C83.9107 94.7453 83.4044 95.2273 82.7837 95.2273H75.8924C75.5937 95.2267 75.3074 95.1135 75.0962 94.9124C74.8849 94.7113 74.766 94.4388 74.7654 94.1544V87.5939C74.766 87.3095 74.8849 87.037 75.0962 86.8359C75.3074 86.6348 75.5937 86.5216 75.8924 86.521ZM25.6281 63.5054C25.3294 63.506 25.043 63.6192 24.8318 63.8203C24.6206 64.0214 24.5017 64.294 24.5011 64.5784V71.1388C24.5011 71.7298 25.0073 72.2117 25.6281 72.2117H32.5193C33.1401 72.2117 33.6463 71.7298 33.6463 71.1388V64.5784C33.6463 63.9874 33.1401 63.5054 32.5193 63.5054H25.6281ZM25.6281 48.6024C25.3294 48.603 25.043 48.7162 24.8318 48.9173C24.6206 49.1184 24.5017 49.3909 24.5011 49.6753V56.2358C24.5011 56.8267 25.0073 57.3087 25.6281 57.3087H32.5193C33.1401 57.3087 33.6463 56.8267 33.6463 56.2358V49.6753C33.6463 49.0844 33.1401 48.6024 32.5193 48.6024H25.6281ZM10.1066 78.634L44.8851 78.6338C45.0093 78.6338 45.1105 78.7301 45.1105 78.8484V102.092C45.1105 102.21 45.0093 102.307 44.8851 102.307H42.4222C42.298 102.307 42.1968 102.21 42.1968 102.092V87.5937C42.1968 86.8836 41.8931 86.2397 41.4038 85.7736C41.153 85.5341 40.855 85.3441 40.527 85.2146C40.1989 85.085 39.8471 85.0185 39.4919 85.0187H18.6555C17.9096 85.0187 17.2332 85.3077 16.7436 85.7736C16.4921 86.0123 16.2925 86.296 16.1565 86.6084C16.0204 86.9207 15.9504 87.2556 15.9506 87.5937V102.092C15.9506 102.21 15.8494 102.307 15.7252 102.307H10.1066C9.98243 102.307 9.88123 102.21 9.88123 102.092V78.8486C9.88123 78.7303 9.98243 78.634 10.1066 78.634ZM38.8159 88.0231H30.877C30.7528 88.0231 30.6516 88.1194 30.6516 88.2377V102.092C30.6516 102.21 30.7528 102.307 30.877 102.307H38.8159C38.9401 102.307 39.0413 102.21 39.0413 102.092V88.2377C39.0411 88.1194 38.9399 88.0231 38.8159 88.0231ZM27.496 102.092V88.2375C27.496 88.1192 27.3948 88.0229 27.2706 88.0229H19.3315C19.2073 88.0229 19.1061 88.1192 19.1061 88.2375V102.092C19.1061 102.21 19.2073 102.307 19.3315 102.307H27.2706C27.3948 102.307 27.496 102.21 27.496 102.092ZM96.611 8.5H105.031C105.511 8.5 105.902 8.98281 105.902 9.57292V12.6009C105.902 12.7191 105.801 12.8155 105.677 12.8155H95.9652C95.841 12.8155 95.7398 12.7191 95.7398 12.6009V9.57292C95.7398 8.98195 96.1311 8.5 96.611 8.5ZM105.902 16.034V54.8637C105.902 54.982 105.801 55.0783 105.677 55.0783H95.9652C95.841 55.0783 95.7398 54.982 95.7398 54.8637V16.034C95.7398 15.9158 95.841 15.8194 95.9652 15.8194H105.677C105.801 15.8194 105.902 15.9158 105.902 16.034ZM77.4065 17.0833H85.8264C86.3063 17.0833 86.6975 17.5657 86.6975 18.1563V21.1842C86.6975 21.3025 86.5963 21.3988 86.4721 21.3988H76.7604C76.6363 21.3988 76.535 21.3025 76.535 21.1842V18.1563C76.5353 17.5653 76.9266 17.0833 77.4065 17.0833ZM86.6978 24.6176V54.8639C86.6978 54.9822 86.5966 55.0785 86.4724 55.0785H76.7607C76.6365 55.0785 76.5353 54.9822 76.5353 54.8639V24.6176C76.5353 24.4993 76.6365 24.403 76.7607 24.403H86.4724C86.5966 24.403 86.6978 24.4993 86.6978 24.6176Z"
        stroke="#C2C2C2" stroke-width="2" mask="url(#path-1-inside-1_2092_2153)" />
</svg>